# This file uses centimeters as units for non-parametric coordinates.

mtllib Athena_small_package.mtl
g default
v -25.000000 -26.694492 25.000000
v -25.000000 -26.694492 8.333300
v -8.333300 -26.694492 8.333300
v -8.333300 -26.694492 25.000000
v 8.333300 -26.694492 8.333300
v 8.333300 -26.694492 25.000000
v 25.000000 -26.694492 8.333300
v 25.000000 -26.694492 25.000000
v -25.000000 -26.694492 -8.333300
v -8.333300 -26.694492 -8.333300
v 8.333300 -26.694492 -8.333300
v 25.000000 -26.694492 -8.333300
v -25.000000 -26.694492 -25.000000
v -8.333300 -26.694492 -25.000000
v 8.333300 -26.694492 -25.000000
v 25.000000 -26.694492 -25.000000
v -27.894699 13.685508 27.894699
v -8.333300 13.685500 27.894699
v -8.333300 13.685500 8.333300
v -27.894699 13.685500 8.333300
v -8.333300 16.098000 30.307199
v 8.333300 16.098000 30.307199
v 8.333300 16.098000 8.333300
v -8.333300 16.098000 8.333300
v 8.333300 13.685500 27.894699
v 27.894699 13.685508 27.894699
v 27.894699 13.685500 8.333300
v 8.333300 13.685500 8.333300
v -30.307199 16.098000 8.333300
v -8.333300 16.098000 -8.333300
v -30.307199 16.098000 -8.333300
v -8.333300 18.751202 8.333300
v 8.333300 18.751202 8.333300
v 8.333300 18.751202 -8.333300
v -8.333300 18.751202 -8.333300
v 30.307199 16.098000 8.333300
v 30.307199 16.098000 -8.333300
v 8.333300 16.098000 -8.333300
v -27.894699 13.685500 -8.333300
v -8.333300 13.685500 -8.333300
v -8.333300 13.685500 -27.894699
v -27.894699 13.685508 -27.894699
v 8.333300 16.098000 -30.307199
v -8.333300 16.098000 -30.307199
v 8.333300 13.685500 -8.333300
v 27.894699 13.685500 -8.333300
v 27.894699 13.685508 -27.894699
v 8.333300 13.685500 -27.894699
v -8.333300 -3.704893 25.000000
v -25.000000 -3.704893 25.000000
v 8.333300 -3.704893 25.000000
v 25.000000 -3.704893 25.000000
v -27.894699 -3.704893 27.894699
v -8.333300 -3.704893 27.894699
v -8.333300 -3.704893 30.307199
v 8.333300 -3.704893 30.307199
v 8.333300 -3.704893 27.894699
v 27.894699 -3.704898 27.894699
v 25.000000 -3.704898 8.333300
v 25.000000 -3.704898 -8.333300
v 25.000000 -3.704898 -25.000000
v 27.894699 -3.704893 8.333300
v 30.307199 -3.704893 8.333300
v 30.307199 -3.704893 -8.333300
v 27.894699 -3.704893 -8.333300
v 27.894699 -3.704893 -27.894699
v 8.333300 -3.704893 -25.000000
v -8.333300 -3.704893 -25.000000
v -25.000000 -3.704898 -25.000000
v 8.333300 -3.704898 -27.894699
v 8.333300 -3.704898 -30.307199
v -8.333300 -3.704898 -30.307199
v -8.333300 -3.704893 -27.894699
v -27.894699 -3.704893 -27.894699
v -25.000000 -3.704893 -8.333300
v -25.000000 -3.704893 8.333300
v -27.894699 -3.704893 -8.333300
v -30.307199 -3.704893 -8.333300
v -30.307199 -3.704893 8.333300
v -27.894699 -3.704898 8.333300
v -8.333300 -8.046998 27.894699
v 8.333300 -8.046998 27.894699
v 8.333300 -8.046998 30.307199
v -8.333300 -8.046992 30.307199
v 27.894699 -8.046992 8.333300
v 27.894699 -8.046992 -8.333300
v 30.307199 -8.046992 -8.333300
v 30.307199 -8.046992 8.333300
v 8.333300 -8.046998 -27.894699
v -8.333300 -8.046998 -27.894699
v -8.333300 -8.046998 -30.307199
v 8.333300 -8.046998 -30.307199
v -27.894699 -8.046998 -8.333300
v -27.894699 -8.046998 8.333300
v -30.307199 -8.046998 8.333300
v -30.307199 -8.046998 -8.333300
v 27.894699 13.685500 8.333300
v 8.333300 13.685500 8.333300
v 8.333300 13.685500 27.894699
v 8.333300 -3.704898 27.894699
v 27.894699 -3.704898 -8.333300
v 27.894699 -3.704898 8.333300
v -8.333300 -3.704898 -27.894699
v 8.333300 -3.704898 -27.894699
v -27.894699 -3.704898 8.333300
v -27.894699 -3.704898 -8.333300
v -8.333300 -3.704898 27.894699
v -8.333300 13.685500 27.894699
v -8.333300 13.685508 8.333300
v -27.894699 13.685508 8.333300
v -27.894699 13.685508 -8.333300
v -8.333300 13.685508 -8.333300
v -8.333300 13.685508 -27.894699
v 8.333300 13.685508 -27.894699
v 8.333300 13.685508 -8.333300
v 27.894699 13.685508 -8.333300
vt 0.145020 0.132194
vt 0.231179 0.132520
vt 0.230852 0.218679
vt 0.144694 0.218352
vt 0.230526 0.304837
vt 0.144367 0.304510
vt 0.230199 0.390996
vt 0.144041 0.390669
vt 0.317337 0.132847
vt 0.317011 0.219005
vt 0.316684 0.305164
vt 0.316358 0.391322
vt 0.403496 0.133173
vt 0.403170 0.219332
vt 0.402843 0.305490
vt 0.402516 0.391649
vt 0.424868 0.816090
vt 0.363951 0.877018
vt 0.283621 0.796700
vt 0.344539 0.735772
vt 0.596516 0.685301
vt 0.596779 0.584178
vt 0.697902 0.584442
vt 0.697639 0.685565
vt 0.424854 0.636042
vt 0.344537 0.716375
vt 0.283608 0.655457
vt 0.363924 0.575125
vt 0.334840 0.726074
vt 0.273922 0.787003
vt 0.212992 0.726086
vt 0.273910 0.665156
vt 0.264225 0.796702
vt 0.183911 0.877035
vt 0.122980 0.816119
vt 0.203295 0.735785
vt 0.783292 0.873094
vt 0.783553 0.771971
vt 0.884677 0.772231
vt 0.884416 0.873355
vt 0.264211 0.655459
vt 0.203293 0.716388
vt 0.122962 0.636071
vt 0.183880 0.575142
vt 0.783782 0.685793
vt 0.784053 0.584670
vt 0.885176 0.584941
vt 0.884905 0.686064
vt 0.025849 0.217902
vt 0.026175 0.131743
vt 0.025522 0.304060
vt 0.025196 0.390219
vt 0.506119 0.872351
vt 0.506390 0.771227
vt 0.596291 0.771469
vt 0.596019 0.872593
vt 0.497263 0.888470
vt 0.436346 0.949400
vt 0.513137 0.904341
vt 0.452220 0.965270
vt 0.506616 0.685068
vt 0.506879 0.583945
vt 0.229749 0.509841
vt 0.143590 0.509514
vt 0.315907 0.510167
vt 0.402066 0.510494
vt 0.597014 0.494277
vt 0.698137 0.494542
vt 0.111532 0.949432
vt 0.050601 0.888515
vt 0.095662 0.965306
vt 0.034731 0.904390
vt 0.784295 0.494770
vt 0.885418 0.495041
vt 0.521688 0.305940
vt 0.521362 0.392099
vt 0.522015 0.219782
vt 0.522341 0.133623
vt 0.975076 0.585182
vt 0.974806 0.686305
vt 0.050567 0.563690
vt 0.111485 0.502761
vt 0.034693 0.547820
vt 0.095611 0.486890
vt 0.974578 0.772464
vt 0.974316 0.873587
vt 0.317788 0.014002
vt 0.403947 0.014328
vt 0.231630 0.013675
vt 0.145471 0.013348
vt 0.884183 0.963256
vt 0.783059 0.962993
vt 0.436304 0.502729
vt 0.497234 0.563646
vt 0.452175 0.486855
vt 0.513105 0.547772
vt 0.696901 0.962765
vt 0.595777 0.962494
vt 0.697142 0.872865
vt 0.491195 0.857346
vt 0.491425 0.771187
vt 0.491652 0.685029
vt 0.491876 0.598870
vt 0.612017 0.479352
vt 0.698176 0.479577
vt 0.784335 0.479806
vt 0.870493 0.480037
vt 0.990000 0.600186
vt 0.989770 0.686345
vt 0.989542 0.772503
vt 0.989319 0.858662
vt 0.869179 0.978181
vt 0.783020 0.977957
vt 0.696861 0.977729
vt 0.610702 0.977498
vt 0.353357 0.726952
vt 0.424867 0.798452
vt 0.442505 0.816088
vt 0.506081 0.879650
vt 0.521955 0.895521
vt 0.521957 0.913159
vt 0.461039 0.974088
vt 0.427528 0.958219
vt 0.363952 0.894656
vt 0.346313 0.877020
vt 0.274802 0.805520
vt 0.443402 0.974090
vt 0.273045 0.805520
vt 0.201549 0.877033
vt 0.183913 0.894673
vt 0.120352 0.958250
vt 0.104482 0.974124
vt 0.086844 0.974126
vt 0.025914 0.913209
vt 0.041782 0.879698
vt 0.105343 0.816121
vt 0.122978 0.798481
vt 0.194475 0.726968
vt 0.025911 0.895572
vt 0.194475 0.725208
vt 0.122963 0.653709
vt 0.105324 0.636073
vt 0.041749 0.572510
vt 0.025876 0.556639
vt 0.025874 0.539002
vt 0.086791 0.478072
vt 0.120303 0.493941
vt 0.183878 0.557505
vt 0.201517 0.575140
vt 0.273029 0.646639
vt 0.104429 0.478070
vt 0.274788 0.646639
vt 0.346286 0.575126
vt 0.363922 0.557487
vt 0.427485 0.493911
vt 0.443355 0.478037
vt 0.460993 0.478036
vt 0.521923 0.538953
vt 0.506054 0.572464
vt 0.442491 0.636040
vt 0.424855 0.653680
vt 0.353357 0.725192
vt 0.521925 0.556590
vt 0.537831 0.929029
vt 0.476913 0.989959
vt 0.070974 0.990000
vt 0.010043 0.929083
vt 0.010000 0.523131
vt 0.070918 0.462201
vt 0.476863 0.462161
vt 0.537793 0.523079
vt 0.697415 0.771742
vn 0.000000 -1.000000 0.000000
vn 0.000000 -1.000000 0.000000
vn 0.000000 -1.000000 0.000000
vn 0.000000 -1.000000 0.000000
vn 0.000000 -1.000000 0.000000
vn 0.000000 -1.000000 0.000000
vn 0.000000 -1.000000 0.000000
vn 0.000000 -1.000000 0.000000
vn 0.000000 -1.000000 0.000000
vn 0.000000 -1.000000 0.000000
vn 0.000000 -1.000000 0.000000
vn 0.000000 -1.000000 0.000000
vn 0.000000 -1.000000 0.000000
vn 0.000000 -1.000000 0.000000
vn 0.000000 -1.000000 0.000000
vn 0.000000 -1.000000 0.000000
vn 0.000000 -1.000000 0.000000
vn 0.000000 -1.000000 0.000000
vn 0.000000 -1.000000 0.000000
vn 0.000000 -1.000000 0.000000
vn 0.000000 -1.000000 0.000000
vn 0.000000 -1.000000 0.000000
vn 0.000000 -1.000000 0.000000
vn 0.000000 -1.000000 0.000000
vn 0.000000 -1.000000 0.000000
vn 0.000000 -1.000000 0.000000
vn 0.000000 -1.000000 0.000000
vn 0.000000 -1.000000 0.000000
vn 0.000000 -1.000000 0.000000
vn 0.000000 -1.000000 0.000000
vn 0.000000 -1.000000 0.000000
vn 0.000000 -1.000000 0.000000
vn 0.000000 -1.000000 0.000000
vn 0.000000 -1.000000 0.000000
vn 0.000000 -1.000000 0.000000
vn 0.000000 -1.000000 0.000000
vn 0.000000 1.000000 0.000000
vn 0.000000 1.000000 0.000000
vn 0.000000 1.000000 0.000000
vn 0.000000 1.000000 0.000000
vn -0.000000 1.000000 -0.000000
vn -0.000000 1.000000 -0.000000
vn -0.000000 1.000000 -0.000000
vn -0.000000 1.000000 -0.000000
vn 0.000000 1.000000 0.000000
vn 0.000000 1.000000 0.000000
vn 0.000000 1.000000 0.000000
vn 0.000000 1.000000 0.000000
vn 0.000000 1.000000 0.000000
vn 0.000000 1.000000 0.000000
vn 0.000000 1.000000 0.000000
vn 0.000000 1.000000 0.000000
vn 0.000000 1.000000 0.000000
vn 0.000000 1.000000 0.000000
vn 0.000000 1.000000 0.000000
vn 0.000000 1.000000 0.000000
vn 0.000000 1.000000 0.000000
vn 0.000000 1.000000 0.000000
vn 0.000000 1.000000 0.000000
vn 0.000000 1.000000 0.000000
vn 0.000000 1.000000 0.000000
vn 0.000000 1.000000 0.000000
vn 0.000000 1.000000 0.000000
vn 0.000000 1.000000 0.000000
vn 0.000000 1.000000 0.000000
vn 0.000000 1.000000 0.000000
vn 0.000000 1.000000 0.000000
vn 0.000000 1.000000 0.000000
vn 0.000000 0.000000 1.000000
vn 0.000000 0.000000 1.000000
vn 0.000000 0.000000 1.000000
vn 0.000000 0.000000 1.000000
vn 0.000000 0.000000 1.000000
vn 0.000000 0.000000 1.000000
vn 0.000000 0.000000 1.000000
vn 0.000000 0.000000 1.000000
vn 0.000000 0.000000 1.000000
vn 0.000000 0.000000 1.000000
vn 0.000000 0.000000 1.000000
vn 0.000000 0.000000 1.000000
vn 0.000000 0.000000 1.000000
vn 0.000000 0.000000 1.000000
vn 0.000000 0.000000 1.000000
vn 0.000000 0.000000 1.000000
vn 0.000000 0.000000 1.000000
vn 0.000000 0.000000 1.000000
vn 0.000000 0.000000 1.000000
vn 0.000000 0.000000 1.000000
vn 0.000000 0.000000 1.000000
vn 0.000000 0.000000 1.000000
vn 0.000000 0.000000 1.000000
vn 0.000000 0.000000 1.000000
vn 0.000000 0.000000 1.000000
vn 0.000000 0.000000 1.000000
vn 0.000000 0.000000 1.000000
vn 0.000000 0.000000 1.000000
vn 1.000000 0.000000 0.000000
vn 1.000000 0.000000 0.000000
vn 1.000000 0.000000 0.000000
vn 1.000000 0.000000 0.000000
vn 1.000000 0.000000 0.000000
vn 1.000000 0.000000 0.000000
vn 1.000000 0.000000 0.000000
vn 1.000000 0.000000 0.000000
vn 1.000000 0.000000 0.000000
vn 1.000000 0.000000 0.000000
vn 1.000000 0.000000 0.000000
vn 1.000000 0.000000 0.000000
vn 1.000000 0.000000 0.000000
vn 1.000000 0.000000 0.000000
vn 1.000000 0.000000 0.000000
vn 1.000000 0.000000 0.000000
vn 1.000000 0.000000 0.000000
vn 1.000000 0.000000 0.000000
vn 1.000000 0.000000 0.000000
vn 1.000000 0.000000 0.000000
vn 1.000000 0.000000 0.000000
vn 1.000000 0.000000 0.000000
vn 1.000000 0.000000 0.000000
vn 1.000000 0.000000 0.000000
vn 1.000000 0.000000 0.000000
vn 1.000000 0.000000 0.000000
vn 1.000000 0.000000 0.000000
vn 1.000000 0.000000 0.000000
vn 0.000000 0.000000 -1.000000
vn 0.000000 0.000000 -1.000000
vn 0.000000 0.000000 -1.000000
vn 0.000000 0.000000 -1.000000
vn 0.000000 0.000000 -1.000000
vn 0.000000 0.000000 -1.000000
vn 0.000000 0.000000 -1.000000
vn 0.000000 0.000000 -1.000000
vn 0.000000 0.000000 -1.000000
vn 0.000000 0.000000 -1.000000
vn 0.000000 0.000000 -1.000000
vn 0.000000 0.000000 -1.000000
vn 0.000000 0.000000 -1.000000
vn 0.000000 0.000000 -1.000000
vn 0.000000 0.000000 -1.000000
vn 0.000000 0.000000 -1.000000
vn 0.000000 0.000000 -1.000000
vn 0.000000 0.000000 -1.000000
vn 0.000000 0.000000 -1.000000
vn 0.000000 0.000000 -1.000000
vn 0.000000 0.000000 -1.000000
vn 0.000000 0.000000 -1.000000
vn 0.000000 0.000000 -1.000000
vn 0.000000 0.000000 -1.000000
vn 0.000000 0.000000 -1.000000
vn 0.000000 0.000000 -1.000000
vn 0.000000 0.000000 -1.000000
vn 0.000000 0.000000 -1.000000
vn -1.000000 0.000000 0.000000
vn -1.000000 0.000000 0.000000
vn -1.000000 0.000000 0.000000
vn -1.000000 0.000000 0.000000
vn -1.000000 0.000000 0.000000
vn -1.000000 0.000000 0.000000
vn -1.000000 0.000000 0.000000
vn -1.000000 0.000000 0.000000
vn -1.000000 0.000000 0.000000
vn -1.000000 0.000000 0.000000
vn -1.000000 0.000000 0.000000
vn -1.000000 0.000000 0.000000
vn -1.000000 0.000000 0.000000
vn -1.000000 0.000000 0.000000
vn -1.000000 0.000000 0.000000
vn -1.000000 0.000000 0.000000
vn -1.000000 0.000000 0.000000
vn -1.000000 0.000000 0.000000
vn -1.000000 0.000000 0.000000
vn -1.000000 0.000000 0.000000
vn -1.000000 0.000000 0.000000
vn -1.000000 0.000000 0.000000
vn -1.000000 0.000000 0.000000
vn -1.000000 0.000000 0.000000
vn -1.000000 0.000000 0.000000
vn -1.000000 0.000000 0.000000
vn -1.000000 0.000000 0.000000
vn -1.000000 0.000000 0.000000
vn 0.000000 -1.000000 0.000000
vn 0.000000 -1.000000 -0.000001
vn 0.000000 -1.000000 -0.000001
vn 0.000000 -1.000000 0.000000
vn 0.000000 -1.000000 -0.000001
vn 0.000000 -1.000000 -0.000002
vn 0.000000 -1.000000 -0.000002
vn 0.000000 -1.000000 -0.000001
vn 0.000000 -1.000000 -0.000002
vn 0.000000 -1.000000 -0.000001
vn 0.000000 -1.000000 -0.000001
vn 0.000000 -1.000000 -0.000002
vn 0.000000 -1.000000 -0.000001
vn 0.000000 -1.000000 0.000000
vn 0.000000 -1.000000 0.000000
vn 0.000000 -1.000000 -0.000001
vn 0.000000 -1.000000 0.000000
vn 0.000000 -1.000000 0.000000
vn 0.000000 -1.000000 0.000000
vn 0.000000 -1.000000 0.000000
vn 0.000000 -1.000000 0.000000
vn 0.000000 -1.000000 0.000000
vn 0.000000 -1.000000 0.000000
vn 0.000000 -1.000000 0.000000
vn 0.000000 -1.000000 0.000000
vn 0.000000 -1.000000 0.000001
vn 0.000000 -1.000000 0.000001
vn 0.000000 -1.000000 0.000000
vn 0.000000 -1.000000 0.000001
vn 0.000000 -1.000000 0.000001
vn 0.000000 -1.000000 0.000001
vn 0.000000 -1.000000 0.000001
vn 0.000000 -1.000000 0.000001
vn 0.000000 -1.000000 0.000000
vn 0.000000 -1.000000 0.000000
vn 0.000000 -1.000000 0.000001
vn 0.000000 -1.000000 0.000000
vn 0.000001 -1.000000 0.000000
vn 0.000001 -1.000000 0.000000
vn 0.000000 -1.000000 0.000000
vn 0.000001 -1.000000 0.000000
vn 0.000001 -1.000000 0.000000
vn 0.000001 -1.000000 0.000000
vn 0.000001 -1.000000 0.000000
vn 0.000001 -1.000000 0.000000
vn 0.000000 -1.000000 0.000000
vn 0.000000 -1.000000 0.000000
vn 0.000001 -1.000000 0.000000
vn -1.000000 0.000000 0.000000
vn -1.000000 0.000000 0.000000
vn -1.000000 0.000000 0.000000
vn -1.000000 0.000000 0.000000
vn -1.000000 0.000000 0.000000
vn -1.000000 0.000000 0.000000
vn -1.000000 0.000000 0.000000
vn -1.000000 0.000000 0.000000
vn -1.000000 0.000000 0.000000
vn -1.000000 0.000000 0.000000
vn -1.000000 0.000000 0.000000
vn -1.000000 0.000000 0.000000
vn 0.000000 -1.000000 0.000001
vn 0.000000 -1.000000 0.000001
vn 0.000000 -1.000000 0.000001
vn 0.000000 -1.000000 0.000001
vn 1.000000 0.000000 0.000000
vn 1.000000 0.000000 0.000000
vn 1.000000 0.000000 0.000000
vn 1.000000 0.000000 0.000000
vn 1.000000 0.000000 0.000000
vn 1.000000 0.000000 0.000000
vn 1.000000 0.000000 0.000000
vn 1.000000 0.000000 0.000000
vn 1.000000 0.000000 0.000000
vn 1.000000 0.000000 0.000000
vn 1.000000 0.000000 0.000000
vn 1.000000 0.000000 0.000000
vn 0.000000 0.000000 1.000000
vn 0.000000 0.000000 1.000000
vn 0.000000 0.000000 1.000000
vn 0.000000 0.000000 1.000000
vn 0.000000 0.000000 1.000000
vn 0.000000 0.000000 1.000000
vn 0.000000 0.000000 1.000000
vn 0.000000 0.000000 1.000000
vn 0.000000 0.000000 1.000000
vn 0.000000 0.000000 1.000000
vn 0.000000 0.000000 1.000000
vn 0.000000 0.000000 1.000000
vn 0.000000 -1.000000 0.000000
vn 0.000000 -1.000000 0.000000
vn 0.000000 -1.000000 0.000000
vn 0.000000 -1.000000 0.000000
vn 0.000000 0.000000 -1.000000
vn 0.000000 0.000000 -1.000000
vn 0.000000 0.000000 -1.000000
vn 0.000000 0.000000 -1.000000
vn 0.000000 0.000000 -1.000000
vn 0.000000 0.000000 -1.000000
vn 0.000000 0.000000 -1.000000
vn 0.000000 0.000000 -1.000000
vn 0.000000 0.000000 -1.000000
vn 0.000000 0.000000 -1.000000
vn 0.000000 0.000000 -1.000000
vn 0.000000 0.000000 -1.000000
vn 1.000000 0.000000 0.000000
vn 1.000000 0.000000 0.000000
vn 1.000000 0.000000 0.000000
vn 1.000000 0.000000 0.000000
vn 1.000000 0.000000 0.000000
vn 1.000000 0.000000 0.000000
vn 1.000000 0.000000 0.000000
vn 1.000000 0.000000 0.000000
vn 1.000000 0.000000 0.000000
vn 1.000000 0.000000 0.000000
vn 1.000000 0.000000 0.000000
vn 1.000000 0.000000 0.000000
vn 0.000000 -1.000000 0.000000
vn 0.000000 -1.000000 0.000000
vn 0.000000 -1.000000 0.000000
vn 0.000000 -1.000000 0.000000
vn -1.000000 0.000000 0.000000
vn -1.000000 0.000000 0.000000
vn -1.000000 0.000000 0.000000
vn -1.000000 0.000000 0.000000
vn -1.000000 0.000000 0.000000
vn -1.000000 0.000000 0.000000
vn -1.000000 0.000000 0.000000
vn -1.000000 0.000000 0.000000
vn -1.000000 0.000000 0.000000
vn -1.000000 0.000000 0.000000
vn -1.000000 0.000000 0.000000
vn -1.000000 0.000000 0.000000
vn 0.000000 0.000000 -1.000000
vn 0.000000 0.000000 -1.000000
vn 0.000000 0.000000 -1.000000
vn 0.000000 0.000000 -1.000000
vn 0.000000 0.000000 -1.000000
vn 0.000000 0.000000 -1.000000
vn 0.000000 0.000000 -1.000000
vn 0.000000 0.000000 -1.000000
vn 0.000000 0.000000 -1.000000
vn 0.000000 0.000000 -1.000000
vn 0.000000 0.000000 -1.000000
vn 0.000000 0.000000 -1.000000
vn 0.000000 -1.000000 0.000000
vn 0.000000 -1.000000 0.000000
vn 0.000000 -1.000000 0.000000
vn 0.000000 -1.000000 0.000000
vn 0.000000 0.000000 1.000000
vn 0.000000 0.000000 1.000000
vn 0.000000 0.000000 1.000000
vn 0.000000 0.000000 1.000000
vn 0.000000 0.000000 1.000000
vn 0.000000 0.000000 1.000000
vn 0.000000 0.000000 1.000000
vn 0.000000 0.000000 1.000000
vn 0.000000 0.000000 1.000000
vn 0.000000 0.000000 1.000000
vn 0.000000 0.000000 1.000000
vn 0.000000 0.000000 1.000000
vn 0.000000 0.000000 -1.000000
vn 0.000000 0.000000 -1.000000
vn 0.000000 0.000000 -1.000000
vn 0.000000 0.000000 -1.000000
vn -1.000000 0.000000 0.000000
vn -1.000000 0.000000 0.000000
vn -1.000000 0.000000 0.000000
vn -1.000000 0.000000 0.000000
vn 0.000000 0.000000 1.000000
vn 0.000000 0.000000 1.000000
vn 0.000000 0.000000 1.000000
vn 0.000000 0.000000 1.000000
vn 1.000000 0.000000 0.000000
vn 1.000000 0.000000 0.000000
vn 1.000000 0.000000 0.000000
vn 1.000000 0.000000 0.000000
vn 0.000000 0.000000 1.000000
vn 0.000000 0.000000 1.000000
vn 0.000000 0.000000 1.000000
vn 0.000000 0.000000 1.000000
vn 1.000000 0.000000 0.000000
vn 1.000000 0.000000 0.000000
vn 1.000000 0.000000 0.000000
vn 1.000000 0.000000 0.000000
vn 0.000000 0.000000 -1.000000
vn 0.000000 0.000000 -1.000000
vn 0.000000 0.000000 -1.000000
vn 0.000000 0.000000 -1.000000
vn -1.000000 0.000000 0.000000
vn -1.000000 0.000000 0.000000
vn -1.000000 0.000000 0.000000
vn -1.000000 0.000000 0.000000
vn 0.000000 1.000000 0.000000
vn 0.000000 1.000000 0.000000
vn 0.000000 1.000000 0.000000
vn 0.000000 1.000000 0.000000
s off
g Athena_small_package:Athena_small_package
usemtl lambert8SG
f 1/1/1 2/2/2 3/3/3 4/4/4
f 4/4/5 3/3/6 5/5/7 6/6/8
f 6/6/9 5/5/10 7/7/11 8/8/12
f 2/2/13 9/9/14 10/10/15 3/3/16
f 3/3/17 10/10/18 11/11/19 5/5/20
f 5/5/21 11/11/22 12/12/23 7/7/24
f 9/9/25 13/13/26 14/14/27 10/10/28
f 10/10/29 14/14/30 15/15/31 11/11/32
f 11/11/33 15/15/34 16/16/35 12/12/36
f 21/17/37 22/18/38 23/19/39 24/20/40
f 99/21/41 26/22/42 97/23/43 98/24/44
f 29/25/45 24/26/46 30/27/47 31/28/48
f 32/29/49 33/30/50 34/31/51 35/32/52
f 23/33/53 36/34/54 37/35/55 38/36/56
f 111/37/57 112/38/58 113/39/59 42/40/60
f 30/41/61 38/42/62 43/43/63 44/44/64
f 115/45/65 116/46/66 47/47/67 114/48/68
f 1/1/69 4/4/70 49/49/71 50/50/72
f 4/4/73 6/6/74 51/51/75 49/49/76
f 6/6/77 8/8/78 52/52/79 51/51/80
f 53/53/81 107/54/82 108/55/83 17/56/84
f 55/57/85 56/58/86 22/18/87 21/17/88
f 56/58/89 55/57/90 84/59/91 83/60/92
f 100/61/93 58/62/94 26/22/95 99/21/96
f 8/8/97 7/7/98 59/63/99 52/64/100
f 7/7/101 12/12/102 60/65/103 59/63/104
f 12/12/105 16/16/106 61/66/107 60/65/108
f 58/67/109 102/68/110 97/23/111 26/22/112
f 63/69/113 64/70/114 37/35/115 36/34/116
f 64/70/117 63/69/118 88/71/119 87/72/120
f 101/73/121 66/74/122 47/47/123 116/46/124
f 16/16/125 15/15/126 67/75/127 61/76/128
f 15/15/129 14/14/130 68/77/131 67/75/132
f 14/14/133 13/13/134 69/78/135 68/77/136
f 66/79/137 104/80/138 114/48/139 47/47/140
f 71/81/141 72/82/142 44/44/143 43/43/144
f 72/82/145 71/81/146 92/83/147 91/84/148
f 103/85/149 74/86/150 42/40/151 113/39/152
f 13/13/153 9/9/154 75/87/155 69/88/156
f 9/9/157 2/2/158 76/89/159 75/87/160
f 2/2/161 1/1/162 50/90/163 76/89/164
f 74/91/165 106/92/166 111/37/167 42/40/168
f 78/93/169 79/94/170 29/25/171 31/28/172
f 79/94/173 78/93/174 96/95/175 95/96/176
f 105/97/177 53/98/178 17/56/179 110/99/180
f 50/100/181 49/101/182 107/54/183 53/53/184
f 49/101/185 51/102/186 100/61/187 107/54/188
f 51/102/189 52/103/190 58/62/191 100/61/192
f 52/104/193 59/105/194 102/68/195 58/67/196
f 59/105/197 60/106/198 101/73/199 102/68/200
f 60/106/201 61/107/202 66/74/203 101/73/204
f 61/108/205 67/109/206 104/80/207 66/79/208
f 67/109/209 68/110/210 103/85/211 104/80/212
f 68/110/213 69/111/214 74/86/215 103/85/216
f 69/112/217 75/113/218 106/92/219 74/91/220
f 75/113/221 76/114/222 105/97/223 106/92/224
f 76/114/225 50/115/226 53/98/227 105/97/228
f 19/116/229 18/117/230 21/17/231 24/20/232
f 18/118/233 54/119/234 55/57/235 21/17/236
f 55/57/237 54/119/238 81/120/239 84/59/240
f 81/121/241 82/122/242 83/60/243 84/59/244
f 57/123/245 25/124/246 22/18/247 56/58/248
f 25/125/249 28/126/250 23/19/251 22/18/252
f 57/123/253 56/58/254 83/60/255 82/127/256
f 28/128/257 27/129/258 36/34/259 23/33/260
f 27/130/261 62/131/262 63/69/263 36/34/264
f 63/69/265 62/131/266 85/132/267 88/71/268
f 85/133/269 86/134/270 87/72/271 88/71/272
f 65/135/273 46/136/274 37/35/275 64/70/276
f 46/137/277 45/138/278 38/36/279 37/35/280
f 65/135/281 64/70/282 87/72/283 86/139/284
f 45/140/285 48/141/286 43/43/287 38/42/288
f 48/142/289 70/143/290 71/81/291 43/43/292
f 71/81/293 70/143/294 89/144/295 92/83/296
f 89/145/297 90/146/298 91/84/299 92/83/300
f 73/147/301 41/148/302 44/44/303 72/82/304
f 41/149/305 40/150/306 30/41/307 44/44/308
f 73/147/309 72/82/310 91/84/311 90/151/312
f 40/152/313 39/153/314 31/28/315 30/27/316
f 39/154/317 77/155/318 78/93/319 31/28/320
f 78/93/321 77/155/322 93/156/323 96/95/324
f 93/157/325 94/158/326 95/96/327 96/95/328
f 80/159/329 20/160/330 29/25/331 79/94/332
f 20/161/333 19/162/334 24/26/335 29/25/336
f 80/159/337 79/94/338 95/96/339 94/163/340
f 54/164/341 57/165/342 82/122/343 81/121/344
f 62/166/345 65/167/346 86/134/347 85/133/348
f 70/168/349 73/169/350 90/146/351 89/145/352
f 77/170/353 80/171/354 94/158/355 93/157/356
f 24/20/357 23/19/358 33/30/359 32/29/360
f 23/33/361 38/36/362 34/31/363 33/30/364
f 38/42/365 30/41/366 35/32/367 34/31/368
f 30/27/369 24/26/370 32/29/371 35/32/372
f 17/56/373 108/55/374 109/172/375 110/99/376
