# 3ds Max Wavefront OBJ Exporter v0.99 - (c)2007 guruware
# File Created: 24.01.2024 13:47:56

mtllib Cylinder.mtl

#
# object Cylinder001
#

v  0.0000 0.0000 -0.0000
v  0.9135 0.0000 -0.4067
v  0.9781 0.0000 -0.2079
v  1.0000 0.0000 -0.0000
v  0.6691 0.0000 -0.7431
v  0.8090 0.0000 -0.5878
v  0.3090 0.0000 -0.9511
v  0.5000 0.0000 -0.8660
v  -0.1045 0.0000 -0.9945
v  0.1045 0.0000 -0.9945
v  -0.5000 0.0000 -0.8660
v  -0.3090 0.0000 -0.9511
v  -0.8090 0.0000 -0.5878
v  -0.6691 0.0000 -0.7431
v  -0.9781 0.0000 -0.2079
v  -0.9135 0.0000 -0.4067
v  -0.9781 0.0000 0.2079
v  -1.0000 0.0000 0.0000
v  -0.8090 0.0000 0.5878
v  -0.9135 0.0000 0.4067
v  -0.5000 0.0000 0.8660
v  -0.6691 0.0000 0.7431
v  -0.1045 0.0000 0.9945
v  -0.3090 0.0000 0.9511
v  0.3090 0.0000 0.9511
v  0.1045 0.0000 0.9945
v  0.6691 0.0000 0.7431
v  0.5000 0.0000 0.8660
v  0.9135 0.0000 0.4067
v  0.8090 0.0000 0.5878
v  0.9781 0.0000 0.2079
v  0.9781 1.0000 -0.2079
v  1.0000 1.0000 -0.0000
v  0.9135 1.0000 -0.4067
v  0.8090 1.0000 -0.5878
v  0.6691 1.0000 -0.7431
v  0.5000 1.0000 -0.8660
v  0.3090 1.0000 -0.9511
v  0.1045 1.0000 -0.9945
v  -0.1045 1.0000 -0.9945
v  -0.3090 1.0000 -0.9511
v  -0.5000 1.0000 -0.8660
v  -0.6691 1.0000 -0.7431
v  -0.8090 1.0000 -0.5878
v  -0.9135 1.0000 -0.4067
v  -0.9781 1.0000 -0.2079
v  -1.0000 1.0000 0.0000
v  -0.9781 1.0000 0.2079
v  -0.9135 1.0000 0.4067
v  -0.8090 1.0000 0.5878
v  -0.6691 1.0000 0.7431
v  -0.5000 1.0000 0.8660
v  -0.3090 1.0000 0.9511
v  -0.1045 1.0000 0.9945
v  0.1045 1.0000 0.9945
v  0.3090 1.0000 0.9511
v  0.5000 1.0000 0.8660
v  0.6691 1.0000 0.7431
v  0.8090 1.0000 0.5878
v  0.9135 1.0000 0.4067
v  0.9781 1.0000 0.2079
v  0.0000 1.0000 -0.0000
# 62 vertices

vn 0.0000 -1.0000 -0.0000
vn 0.6661 -0.6844 -0.2966
vn 0.7132 -0.6844 -0.1516
vn 0.7291 -0.6844 -0.0000
vn 0.4879 -0.6843 -0.5419
vn 0.5899 -0.6844 -0.4286
vn 0.2253 -0.6843 -0.6935
vn 0.3646 -0.6843 -0.6315
vn -0.0762 -0.6843 -0.7252
vn 0.0762 -0.6843 -0.7252
vn -0.3646 -0.6844 -0.6314
vn -0.2253 -0.6844 -0.6935
vn -0.5899 -0.6844 -0.4286
vn -0.4879 -0.6844 -0.5418
vn -0.7132 -0.6843 -0.1516
vn -0.6661 -0.6844 -0.2966
vn -0.7132 -0.6844 0.1516
vn -0.7291 -0.6844 -0.0000
vn -0.5899 -0.6843 0.4286
vn -0.6661 -0.6843 0.2966
vn -0.3646 -0.6843 0.6315
vn -0.4879 -0.6843 0.5419
vn -0.0762 -0.6843 0.7252
vn -0.2253 -0.6843 0.6935
vn 0.2253 -0.6844 0.6935
vn 0.0762 -0.6843 0.7252
vn 0.4879 -0.6843 0.5419
vn 0.3646 -0.6844 0.6315
vn 0.6661 -0.6843 0.2966
vn 0.5899 -0.6843 0.4286
vn 0.7132 -0.6844 0.1516
vn 0.7132 0.6844 -0.1516
vn 0.7291 0.6844 -0.0000
vn 0.6661 0.6844 -0.2966
vn 0.5899 0.6844 -0.4286
vn 0.4879 0.6843 -0.5419
vn 0.3646 0.6843 -0.6315
vn 0.2253 0.6843 -0.6935
vn 0.0762 0.6843 -0.7252
vn -0.0762 0.6843 -0.7252
vn -0.2253 0.6844 -0.6935
vn -0.3646 0.6844 -0.6314
vn -0.4879 0.6844 -0.5418
vn -0.5899 0.6844 -0.4286
vn -0.6661 0.6844 -0.2966
vn -0.7132 0.6843 -0.1516
vn -0.7291 0.6844 -0.0000
vn -0.7132 0.6844 0.1516
vn -0.6661 0.6843 0.2966
vn -0.5899 0.6843 0.4286
vn -0.4879 0.6843 0.5419
vn -0.3646 0.6843 0.6315
vn -0.2253 0.6843 0.6935
vn -0.0762 0.6843 0.7252
vn 0.0762 0.6843 0.7252
vn 0.2253 0.6844 0.6935
vn 0.3646 0.6844 0.6315
vn 0.4879 0.6843 0.5419
vn 0.5899 0.6843 0.4286
vn 0.6661 0.6843 0.2966
vn 0.7132 0.6844 0.1516
vn 0.0000 1.0000 -0.0000
# 62 vertex normals

vt 0.5000 0.0000 0.0000
vt 0.8167 0.0000 1.0000
vt 0.7833 0.0000 1.0000
vt 0.7500 0.0000 1.0000
vt 0.8833 0.0000 1.0000
vt 0.8500 0.0000 1.0000
vt 0.9500 0.0000 1.0000
vt 0.9167 0.0000 1.0000
vt 0.9955 0.0000 0.9563
vt 0.9833 0.0000 1.0000
vt 0.0833 0.0000 1.0000
vt 0.0500 0.0000 1.0000
vt 0.0167 0.0000 1.0000
vt 0.1500 0.0000 1.0000
vt 0.1167 0.0000 1.0000
vt 0.2167 0.0000 1.0000
vt 0.1833 0.0000 1.0000
vt 0.2833 0.0000 1.0000
vt 0.2500 0.0000 1.0000
vt 0.3500 0.0000 1.0000
vt 0.3167 0.0000 1.0000
vt 0.4167 0.0000 1.0000
vt 0.3833 0.0000 1.0000
vt 0.4833 0.0000 1.0000
vt 0.4500 0.0000 1.0000
vt 0.5500 0.0000 1.0000
vt 0.5167 0.0000 1.0000
vt 0.6167 0.0000 1.0000
vt 0.5833 0.0000 1.0000
vt 0.6833 0.0000 1.0000
vt 0.6500 0.0000 1.0000
vt 0.7167 0.0000 1.0000
vt 0.7833 1.0000 1.0000
vt 0.7500 1.0000 1.0000
vt 0.8167 1.0000 1.0000
vt 0.8500 1.0000 1.0000
vt 0.8833 1.0000 1.0000
vt 0.9167 1.0000 1.0000
vt 0.9500 1.0000 1.0000
vt 0.9833 1.0000 1.0000
vt -0.0167 0.0000 1.0000
vt 0.0167 1.0000 1.0000
vt -0.0167 1.0000 1.0000
vt 0.0500 1.0000 1.0000
vt 0.0833 1.0000 1.0000
vt 0.1167 1.0000 1.0000
vt 0.1500 1.0000 1.0000
vt 0.1833 1.0000 1.0000
vt 0.2167 1.0000 1.0000
vt 0.2500 1.0000 1.0000
vt 0.2833 1.0000 1.0000
vt 0.3167 1.0000 1.0000
vt 0.3500 1.0000 1.0000
vt 0.3833 1.0000 1.0000
vt 0.4167 1.0000 1.0000
vt 0.4500 1.0000 1.0000
vt 0.4833 1.0000 1.0000
vt 0.5167 1.0000 1.0000
vt 0.5500 1.0000 1.0000
vt 0.5833 1.0000 1.0000
vt 0.6167 1.0000 1.0000
vt 0.6500 1.0000 1.0000
vt 0.6833 1.0000 1.0000
vt 0.7167 1.0000 1.0000
vt 0.5000 1.0000 0.0000
# 65 texture coords

o Cylinder001
g Cylinder001
usemtl wire_061135006
s 1
f 1/1/1 2/2/2 3/3/3 4/4/4 
f 1/1/1 5/5/5 6/6/6 2/2/2 
f 1/1/1 7/7/7 8/8/8 5/5/5 
f 1/1/1 9/9/9 10/10/10 7/7/7 
f 1/1/1 11/11/11 12/12/12 9/13/9 
f 1/1/1 13/14/13 14/15/14 11/11/11 
f 1/1/1 15/16/15 16/17/16 13/14/13 
f 1/1/1 17/18/17 18/19/18 15/16/15 
f 1/1/1 19/20/19 20/21/20 17/18/17 
f 1/1/1 21/22/21 22/23/22 19/20/19 
f 1/1/1 23/24/23 24/25/24 21/22/21 
f 1/1/1 25/26/25 26/27/26 23/24/23 
f 1/1/1 27/28/27 28/29/28 25/26/25 
f 1/1/1 29/30/29 30/31/30 27/28/27 
f 1/1/1 4/4/4 31/32/31 29/30/29 
s 8
f 4/4/4 3/3/3 32/33/32 33/34/33 
f 3/3/3 2/2/2 34/35/34 32/33/32 
f 2/2/2 6/6/6 35/36/35 34/35/34 
f 6/6/6 5/5/5 36/37/36 35/36/35 
f 5/5/5 8/8/8 37/38/37 36/37/36 
f 8/8/8 7/7/7 38/39/38 37/38/37 
f 7/7/7 10/10/10 39/40/39 38/39/38 
f 10/41/10 9/13/9 40/42/40 39/43/39 
f 9/13/9 12/12/12 41/44/41 40/42/40 
f 12/12/12 11/11/11 42/45/42 41/44/41 
f 11/11/11 14/15/14 43/46/43 42/45/42 
f 14/15/14 13/14/13 44/47/44 43/46/43 
f 13/14/13 16/17/16 45/48/45 44/47/44 
f 16/17/16 15/16/15 46/49/46 45/48/45 
f 15/16/15 18/19/18 47/50/47 46/49/46 
f 18/19/18 17/18/17 48/51/48 47/50/47 
f 17/18/17 20/21/20 49/52/49 48/51/48 
f 20/21/20 19/20/19 50/53/50 49/52/49 
f 19/20/19 22/23/22 51/54/51 50/53/50 
f 22/23/22 21/22/21 52/55/52 51/54/51 
f 21/22/21 24/25/24 53/56/53 52/55/52 
f 24/25/24 23/24/23 54/57/54 53/56/53 
f 23/24/23 26/27/26 55/58/55 54/57/54 
f 26/27/26 25/26/25 56/59/56 55/58/55 
f 25/26/25 28/29/28 57/60/57 56/59/56 
f 28/29/28 27/28/27 58/61/58 57/60/57 
f 27/28/27 30/31/30 59/62/59 58/61/58 
f 30/31/30 29/30/29 60/63/60 59/62/59 
f 29/30/29 31/32/31 61/64/61 60/63/60 
f 31/32/31 4/4/4 33/34/33 61/64/61 
s 1
f 62/65/62 61/64/61 33/34/33 32/33/32 
f 62/65/62 32/33/32 34/35/34 35/36/35 
f 62/65/62 35/36/35 36/37/36 37/38/37 
f 62/65/62 37/38/37 38/39/38 39/40/39 
f 62/65/62 39/43/39 40/42/40 41/44/41 
f 62/65/62 41/44/41 42/45/42 43/46/43 
f 62/65/62 43/46/43 44/47/44 45/48/45 
f 62/65/62 45/48/45 46/49/46 47/50/47 
f 62/65/62 47/50/47 48/51/48 49/52/49 
f 62/65/62 49/52/49 50/53/50 51/54/51 
f 62/65/62 51/54/51 52/55/52 53/56/53 
f 62/65/62 53/56/53 54/57/54 55/58/55 
f 62/65/62 55/58/55 56/59/56 57/60/57 
f 62/65/62 57/60/57 58/61/58 59/62/59 
f 62/65/62 59/62/59 60/63/60 61/64/61 
# 60 polygons

