# Wavefront Obj file
# 
# verts: 44 uv-s: 59
mtllib Nightclub_Wooden_Bar_Table.mtl

g NightClub_Wooden_Bar_Table
#pivot 0.000000 0.000000 0.000000

v 0.000000 -62.421135 0.000000
v 0.000000 32.196312 0.000000
v 14.488514 32.196312 -25.094818
v 15.349597 31.358049 -26.586266
v 15.437504 29.653971 -26.738537
v -14.488503 32.196312 -25.094822
v -15.349585 31.358049 -26.586273
v -15.437491 29.653971 -26.738541
v -28.977015 32.196312 -0.000004
v -30.699179 31.358049 -0.000005
v -30.874992 29.653971 -0.000005
v -14.488510 32.196312 25.094822
v -15.349593 31.358049 26.586269
v -15.437500 29.653971 26.738541
v 14.488505 32.196312 25.094822
v 15.349587 31.358049 26.586273
v 15.437494 29.653971 26.738541
v 28.977015 32.196312 -0.000000
v 30.699179 31.358049 -0.000000
v 30.874992 29.653971 -0.000000
v 15.814047 -59.676888 -27.390720
v 15.517401 -61.579559 -26.876907
v 14.488512 -62.421135 -25.094822
v -15.814031 -59.676888 -27.390728
v -15.517388 -61.579559 -26.876915
v -14.488501 -62.421135 -25.094826
v -31.628073 -59.676888 -0.000005
v -31.034788 -61.579559 -0.000005
v -28.977011 -62.421135 -0.000004
v -15.814044 -59.676888 27.390724
v -15.517398 -61.579559 26.876911
v -14.488508 -62.421135 25.094826
v 15.814034 -59.676888 27.390728
v 15.517392 -61.579559 26.876915
v 14.488503 -62.421135 25.094826
v 31.628073 -59.676888 -0.000000
v 31.034788 -61.579559 -0.000000
v 28.977011 -62.421135 -0.000000
v 9.365861 2.604130 -16.222126
v 18.731718 2.604132 -0.000000
v 9.365859 2.604130 16.222126
v -9.365861 2.604130 16.222126
v -18.731718 2.604132 -0.000003
v -9.365859 2.604130 -16.222126
# 44 positions

vt 0.926568 0.194772
vt 0.834121 0.354228
vt 0.742508 0.194560
vt 0.649971 0.354126
vt 0.558447 0.194346
vt 0.650894 0.034892
vt 0.835044 0.034993
vt 0.939026 0.194817
vt 0.840353 0.365020
vt 0.951272 0.194879
vt 0.846496 0.375621
vt 0.643686 0.364957
vt 0.637495 0.375621
vt 0.545989 0.194302
vt 0.533743 0.194240
vt 0.644662 0.024099
vt 0.638519 0.013498
vt 0.841329 0.024162
vt 0.847520 0.013498
vt 0.168410 0.041645
vt 0.350946 0.039792
vt 0.261263 0.198552
vt 0.078617 0.200389
vt 0.171580 0.357313
vt 0.354117 0.355460
vt 0.443909 0.196716
vt 0.364726 0.015230
vt 0.357877 0.027457
vt 0.161231 0.029458
vt 0.154136 0.017378
vt 0.064413 0.200528
vt 0.050324 0.200664
vt 0.164649 0.369648
vt 0.157800 0.381875
vt 0.361295 0.367647
vt 0.368391 0.379727
vt 0.458113 0.196577
vt 0.472203 0.196441
vt 0.493802 0.397156
vt 0.652171 0.397156
vt 0.652171 0.800196
vt 0.493802 0.800195
vt 0.810540 0.397156
vt 0.810540 0.800196
vt 0.968909 0.397156
vt 0.968909 0.800196
vt 0.018696 0.397156
vt 0.177065 0.397156
vt 0.177064 0.800195
vt 0.018695 0.800195
vt 0.335433 0.397156
vt 0.335433 0.800195
vt 0.652171 0.988087
vt 0.493802 0.988087
vt 0.335433 0.988087
vt 0.177064 0.988087
vt 0.018695 0.988087
vt 0.968909 0.988087
vt 0.810540 0.988087
# 59 texture coordinates

vn 0.000000 1.000000 0.000000
vn 0.000000 1.000000 0.000000
vn 0.000000 1.000000 0.000000
vn 0.000000 1.000000 0.000000
vn 0.000000 1.000000 0.000000
vn 0.000000 1.000000 0.000000
vn 0.000000 1.000000 0.000000
vn 0.218829 0.899143 -0.379021
vn 0.218829 0.899143 -0.379021
vn -0.218828 0.899143 -0.379021
vn -0.218828 0.899143 -0.379021
vn 0.497360 0.102632 -0.861452
vn 0.497360 0.102632 -0.861452
vn -0.497360 0.102632 -0.861452
vn -0.497360 0.102632 -0.861452
vn -0.437657 0.899142 -0.000000
vn -0.437657 0.899142 -0.000000
vn -0.994720 0.102629 -0.000000
vn -0.994720 0.102629 -0.000000
vn -0.218829 0.899143 0.379021
vn -0.218829 0.899143 0.379021
vn -0.497360 0.102632 0.861452
vn -0.497360 0.102632 0.861452
vn 0.218828 0.899143 0.379021
vn 0.218828 0.899143 0.379021
vn 0.497360 0.102632 0.861452
vn 0.497360 0.102632 0.861452
vn 0.437657 0.899142 -0.000000
vn 0.437657 0.899142 -0.000000
vn 0.994720 0.102629 0.000000
vn 0.994720 0.102629 0.000000
vn 0.000000 -1.000000 0.000000
vn 0.000000 -1.000000 0.000000
vn 0.000000 -1.000000 0.000000
vn 0.000000 -1.000000 0.000000
vn 0.000000 -1.000000 0.000000
vn 0.000000 -1.000000 0.000000
vn 0.000000 -1.000000 0.000000
vn 0.477332 -0.297685 -0.826763
vn 0.477332 -0.297685 -0.826763
vn -0.477332 -0.297685 -0.826763
vn -0.477332 -0.297685 -0.826763
vn 0.189270 -0.925585 -0.327825
vn 0.189270 -0.925585 -0.327825
vn -0.189270 -0.925585 -0.327825
vn -0.189270 -0.925585 -0.327825
vn -0.954665 -0.297683 -0.000000
vn -0.954665 -0.297683 -0.000000
vn -0.378539 -0.925585 -0.000000
vn -0.378539 -0.925585 -0.000000
vn -0.477332 -0.297685 0.826763
vn -0.477332 -0.297685 0.826763
vn -0.189270 -0.925585 0.327825
vn -0.189270 -0.925585 0.327825
vn 0.477332 -0.297685 0.826763
vn 0.477332 -0.297685 0.826763
vn 0.189270 -0.925585 0.327825
vn 0.189270 -0.925585 0.327825
vn 0.954665 -0.297683 0.000000
vn 0.954665 -0.297683 0.000000
vn 0.378539 -0.925585 -0.000000
vn 0.378539 -0.925585 -0.000000
vn 0.000000 0.176510 -0.984299
vn 0.000000 0.176510 -0.984299
vn 0.000000 -0.096527 -0.995330
vn 0.000000 -0.096527 -0.995330
vn -0.852428 0.176510 -0.492150
vn -0.852428 0.176510 -0.492150
vn -0.861981 -0.096527 -0.497665
vn -0.861981 -0.096527 -0.497665
vn -0.852428 0.176510 0.492149
vn -0.852428 0.176510 0.492149
vn -0.861982 -0.096527 0.497665
vn -0.861982 -0.096527 0.497665
vn -0.000000 0.176510 0.984299
vn -0.000000 0.176510 0.984299
vn -0.000000 -0.096527 0.995330
vn -0.000000 -0.096527 0.995330
vn 0.852428 0.176510 0.492149
vn 0.852428 0.176510 0.492149
vn 0.861981 -0.096527 0.497665
vn 0.861981 -0.096527 0.497665
vn 0.852428 0.176510 -0.492149
vn 0.852428 0.176510 -0.492149
vn 0.861981 -0.096527 -0.497665
vn 0.861981 -0.096527 -0.497665
vn 0.000000 -0.362357 -0.932039
vn 0.000000 -0.362357 -0.932039
vn 0.807170 -0.362357 -0.466020
vn 0.807170 -0.362357 -0.466020
vn 0.807170 -0.362357 0.466020
vn 0.807170 -0.362357 0.466020
vn 0.000000 -0.362357 0.932039
vn 0.000000 -0.362357 0.932039
vn -0.807170 -0.362357 0.466020
vn -0.807170 -0.362357 0.466020
vn -0.807170 -0.362357 -0.466020
vn -0.807170 -0.362357 -0.466020
# 98 normals

usemtl standardSurface1
s 1
f 3/1/1 6/2/2 2/3/3
f 6/2/2 9/4/4 2/3/3
f 9/4/4 12/5/5 2/3/3
f 12/5/5 15/6/6 2/3/3
f 15/6/6 18/7/7 2/3/3
f 18/7/7 3/1/1 2/3/3
s 2
f 3/1/8 4/8/9 7/9/10 6/2/11
f 6/2/11 7/9/10 10/12/16 9/4/17
f 9/4/17 10/12/16 13/14/20 12/5/21
f 12/5/21 13/14/20 16/16/24 15/6/25
f 15/6/25 16/16/24 19/18/28 18/7/29
f 4/8/9 3/1/8 18/7/29 19/18/28
s 3
f 4/8/12 5/10/13 8/11/14 7/9/15
f 7/9/15 8/11/14 11/13/18 10/12/19
f 10/12/19 11/13/18 14/15/22 13/14/23
f 13/14/23 14/15/22 17/17/26 16/16/27
f 16/16/27 17/17/26 20/19/30 19/18/31
f 5/10/13 4/8/12 19/18/31 20/19/30
s 4
f 26/20/32 23/21/33 1/22/34
f 29/23/35 26/20/32 1/22/34
f 32/24/36 29/23/35 1/22/34
f 35/25/37 32/24/36 1/22/34
f 38/26/38 35/25/37 1/22/34
f 23/21/33 38/26/38 1/22/34
s 5
f 21/27/39 22/28/40 25/29/41 24/30/42
f 24/30/42 25/29/41 28/31/47 27/32/48
f 27/32/48 28/31/47 31/33/51 30/34/52
f 30/34/52 31/33/51 34/35/55 33/36/56
f 33/36/56 34/35/55 37/37/59 36/38/60
f 22/28/40 21/27/39 36/38/60 37/37/59
s 6
f 22/28/43 23/21/44 26/20/45 25/29/46
f 25/29/46 26/20/45 29/23/49 28/31/50
f 28/31/50 29/23/49 32/24/53 31/33/54
f 31/33/54 32/24/53 35/25/57 34/35/58
f 34/35/58 35/25/57 38/26/61 37/37/62
f 23/21/44 22/28/43 37/37/62 38/26/61
s 7
f 21/39/63 24/40/64 44/41/65 39/42/66
f 39/42/66 44/41/65 8/53/87 5/54/88
s 8
f 24/40/67 27/43/68 43/44/69 44/41/70
f 44/41/70 43/44/69 11/59/97 8/53/98
s 9
f 27/43/71 30/45/72 42/46/73 43/44/74
f 43/44/74 42/46/73 14/58/95 11/59/96
s 10
f 30/47/75 33/48/76 41/49/77 42/50/78
f 42/50/78 41/49/77 17/56/93 14/57/94
s 11
f 33/48/79 36/51/80 40/52/81 41/49/82
f 41/49/82 40/52/81 20/55/91 17/56/92
s 12
f 36/51/83 21/39/84 39/42/85 40/52/86
f 40/52/86 39/42/85 5/54/89 20/55/90

# 48 faces
