# WaveFront *.obj file (generated by Cinema 4D)

mtllib ./Stacks_of_mail.mtl

v -40.607229 43.427905 -131.896616
v 131.896616 43.427905 -40.607229
v -131.896616 43.427905 40.607229
v 40.607229 43.427905 131.896616
v 56.739597 43.427905 -80.380477
v -25.560957 43.427905 96.880277
v 114.020485 43.427905 -50.067314
v 14.266319 43.427905 117.956953
v 113.020265 43.427905 -68.652202
v 73.192990 43.427905 -89.728878
v -40.607229 41.305432 -131.896616
v 131.896616 41.305432 -40.607229
v -131.896616 41.305432 40.607229
v 40.607229 41.305432 131.896616
v 56.739597 41.305432 -80.380477
v -25.560957 41.305432 96.880277
v 114.020485 41.305432 -50.067314
v 14.266319 41.305432 117.956953
v 113.020265 41.305431 -68.652202
v 73.192989 41.305431 -89.728878
v -5.334496 31.698784 117.023632
v -4.859725 38.373895 106.608529
v 106.504085 31.698784 -48.783882
v 97.025222 38.373895 -44.442117
v 5.334496 31.698784 -117.023632
v 4.859725 38.373895 -106.608529
v -106.504085 31.698784 48.783882
v -97.025222 38.373895 44.442117
v -110.833118 34.635228 48.350298
v 3.310799 34.635228 -120.875018
v 110.833118 34.635228 -48.350298
v -3.310799 34.635228 120.875018
v -7.267927 31.698784 -98.339773
v -93.901663 31.698784 30.100023
v 93.901663 31.698784 -30.100023
v 7.267927 31.698784 98.339773
v 97.970921 34.635228 -29.281307
v 9.551398 34.635228 101.806027
v 85.544415 38.373895 -27.421121
v 6.621081 38.373895 89.587533
v -6.621081 38.373895 -89.587533
v -85.544415 38.373895 27.421121
v -9.551398 34.635228 -101.806027
v -97.970921 34.635228 29.281307
v -100.000000 25.099831 61.016287
v -91.100000 31.774941 55.585838
v 100.000000 25.099831 61.016287
v 91.100000 31.774941 55.585838
v 100.000000 25.099831 -61.016287
v 91.100000 31.774941 -55.585838
v -100.000000 25.099831 -61.016287
v -91.100000 31.774941 -55.585838
v -102.061307 28.036275 -64.847676
v 102.061307 28.036275 -64.847676
v 102.061307 28.036275 64.847676
v -102.061307 28.036275 64.847676
v 77.463193 25.099831 -61.016287
v -77.463193 25.099831 -61.016287
v 77.463193 25.099831 61.016287
v -77.463193 25.099831 61.016287
v 79.059948 28.036275 64.847676
v -79.059948 28.036275 64.847676
v 70.568969 31.774941 55.585838
v -70.568969 31.774941 55.585838
v 70.568969 31.774941 -55.585838
v -70.568969 31.774941 -55.585838
v 79.059948 28.036275 -64.847676
v -79.059948 28.036275 -64.847676
v -109.442816 12.432792 -109.442816
v 109.442816 20.408359 -109.442816
v -109.442816 20.408359 109.442816
v 109.442816 13.674951 109.442816
v 56.999197 20.408359 109.442816
v 56.999197 20.408359 -109.442816
v -109.442816 20.408359 -66.452554
v 56.999197 20.408359 -66.452554
v 109.442816 20.408359 -66.452554
v -97.585000 15.002729 -97.585000
v 97.585000 15.002729 -97.585000
v -97.585000 15.002729 97.585000
v 97.585000 15.002729 97.585000
v 12.552719 15.002729 -97.585000
v 22.722641 15.002729 97.585000
v 77.360034 15.002729 -97.585000
v 67.783024 15.002729 97.585000
v 67.783024 15.002729 -113.543678
v 22.722641 15.002729 -113.543678
v -97.585000 12.880256 -97.585000
v 97.585000 12.880256 -97.585000
v -97.585000 12.880256 97.585000
v 97.585000 12.880256 97.585000
v 12.552719 12.880256 -97.585000
v 22.722641 12.880256 97.585000
v 77.360034 12.880256 -97.585000
v 67.783024 12.880256 97.585000
v 67.783024 12.880255 -113.543678
v 22.722641 12.880255 -113.543678
v -5.334496 3.273608 117.023632
v -4.859725 9.948719 106.608529
v 106.504085 3.273608 -48.783882
v 97.025222 9.948719 -44.442117
v 5.334496 3.273608 -117.023632
v 4.859725 9.948719 -106.608529
v -106.504085 3.273608 48.783882
v -97.025222 9.948719 44.442117
v -110.833118 6.210052 48.350298
v 3.310799 6.210052 -120.875018
v 110.833118 6.210052 -48.350298
v -3.310799 6.210052 120.875018
v -7.267927 3.273608 -98.339773
v -93.901663 3.273608 30.100023
v 93.901663 3.273608 -30.100023
v 7.267927 3.273608 98.339773
v 97.970921 6.210052 -29.281307
v 9.551398 6.210052 101.806027
v 85.544415 9.948719 -27.421121
v 6.621081 9.948719 89.587533
v -6.621081 9.948719 -89.587533
v -85.544415 9.948719 27.421121
v -9.551398 6.210052 -101.806027
v -97.970921 6.210052 29.281307
v -100.000000 -3.325345 61.016287
v -91.100000 3.349765 55.585838
v 100.000000 -3.325345 61.016287
v 91.100000 3.349765 55.585838
v 100.000000 -3.325345 -61.016287
v 91.100000 3.349765 -55.585838
v -100.000000 -3.325345 -61.016287
v -91.100000 3.349765 -55.585838
v -102.061307 -0.388901 -64.847676
v 102.061307 -0.388901 -64.847676
v 102.061307 -0.388901 64.847676
v -102.061307 -0.388901 64.847676
v 77.463193 -3.325345 -61.016287
v -77.463193 -3.325345 -61.016287
v 77.463193 -3.325345 61.016287
v -77.463193 -3.325345 61.016287
v 79.059948 -0.388901 64.847676
v -79.059948 -0.388901 64.847676
v 70.568969 3.349765 55.585838
v -70.568969 3.349765 55.585838
v 70.568969 3.349765 -55.585838
v -70.568969 3.349765 -55.585838
v 79.059948 -0.388901 -64.847676
v -79.059948 -0.388901 -64.847676
# 145 vertices

vn -0.240248 0.577350 -0.780351
vn -0.007558 0.863338 -0.504570
vn -0.330744 0.707107 0.624987
vn -0.780351 0.577350 0.240248
vn 0.422771 0.864976 -0.270335
vn 0.780351 0.577350 -0.240248
vn 0.240248 0.577350 0.780351
vn -0.013010 0.495387 -0.868575
vn 0.730493 0.498189 -0.467105
vn -0.240248 -0.577350 -0.780351
vn -0.780351 -0.577350 0.240248
vn -0.330744 -0.707107 0.624987
vn -0.007558 -0.863338 -0.504570
vn 0.422771 -0.864976 -0.270335
vn 0.240248 -0.577350 0.780351
vn 0.780351 -0.577350 -0.240248
vn 0.730493 -0.498189 -0.467105
vn -0.013010 -0.495388 -0.868575
vn 0.018083 -0.918468 0.395080
vn 0.027323 -0.801801 0.596967
vn 0.504309 -0.793702 0.340161
vn 0.266261 -0.947022 0.179595
vn 0.373086 -0.918468 -0.131234
vn 0.563733 -0.801801 -0.198294
vn -0.027323 -0.801801 -0.596967
vn -0.018083 -0.918468 -0.395080
vn -0.504309 -0.793702 -0.340161
vn -0.266261 -0.947022 -0.179595
vn -0.373086 -0.918468 0.131234
vn -0.563733 -0.801801 0.198294
vn 0.044516 0.985528 0.163563
vn -0.168329 0.985528 0.019998
vn -0.158061 0.981657 -0.106613
vn 0.158061 0.981657 0.106613
vn -0.066984 0.966922 -0.246119
vn -0.044516 0.985528 -0.163563
vn -0.310323 0.927301 -0.209316
vn 0.253290 0.966922 -0.030091
vn 0.168329 0.985528 -0.019998
vn 0.066984 0.966922 0.246119
vn 0.310323 0.927301 0.209316
vn -0.253290 0.966922 0.030091
vn -0.317425 -0.918468 0.235917
vn -0.479629 -0.801801 0.356471
vn 0.000000 -0.793702 0.608307
vn 0.000000 -0.947022 0.321168
vn 0.317425 -0.918468 0.235917
vn 0.479629 -0.801801 0.356471
vn 0.479629 -0.801801 -0.356471
vn 0.317425 -0.918468 -0.235917
vn 0.000000 -0.793702 -0.608307
vn 0.000000 -0.947022 -0.321168
vn -0.317425 -0.918468 -0.235917
vn -0.479629 -0.801801 -0.356471
vn -0.110707 0.985528 0.128368
vn -0.110707 0.985528 -0.128368
vn 0.000000 0.981657 -0.190656
vn 0.000000 0.981657 0.190656
vn 0.166584 0.966922 -0.193160
vn 0.110707 0.985528 -0.128368
vn 0.000000 0.927301 -0.374317
vn 0.166584 0.966922 0.193160
vn 0.110707 0.985528 0.128368
vn -0.166584 0.966922 0.193160
vn 0.000000 0.927301 0.374317
vn -0.166584 0.966922 -0.193160
vn -0.024039 0.995504 -0.091615
vn -0.012033 0.998875 -0.045859
vn 0.009947 0.999785 -0.018177
vn 0.031902 0.999446 0.009512
vn 0.063769 0.997784 0.019013
vn 0.000000 1.000000 -0.000000
vn -0.000000 1.000000 -0.000000
vn -0.577350 0.577350 -0.577350
vn -0.242689 0.863338 -0.442437
vn 0.000000 0.707107 0.707107
vn -0.577350 0.577350 0.577350
vn 0.247225 0.864976 -0.436688
vn 0.577350 0.577350 -0.577350
vn 0.577350 0.577350 0.577350
vn -0.417769 0.495387 -0.761617
vn 0.427172 0.498189 -0.754541
vn -0.577350 -0.577350 -0.577350
vn -0.577350 -0.577350 0.577350
vn -0.000000 -0.707107 0.707107
vn -0.242689 -0.863338 -0.442437
vn 0.000000 -0.707107 0.707107
vn 0.247225 -0.864976 -0.436688
vn 0.577350 -0.577350 0.577350
vn 0.577350 -0.577350 -0.577350
vn 0.427172 -0.498189 -0.754541
vn -0.417769 -0.495388 -0.761617
# 92 normals

vt 0.286253 0.438688 0.000000
vt 0.631480 0.438688 0.000000
vt 0.631480 0.998735 0.000000
vt 0.286253 0.998735 0.000000
vt 0.760783 0.438688 0.000000
vt 0.760783 0.998735 0.000000
vt 0.846301 0.438688 0.000000
vt 0.846301 0.998735 0.000000
vt 0.176761 0.723676 0.000000
vt 0.176761 0.771122 0.000000
vt 0.188814 0.771122 0.000000
vt 0.188814 0.723676 0.000000
vt 0.088953 0.723676 0.000000
vt 0.088953 0.761503 0.000000
vt 0.174232 0.761503 0.000000
vt 0.174232 0.723676 0.000000
vt 0.176761 0.771122 0.000000
vt 0.188814 0.771122 0.000000
vt 0.088953 0.761503 0.000000
vt 0.174232 0.723676 0.000000
vt 0.001265 0.438688 0.000000
vt 0.001265 0.721147 0.000000
vt 0.033093 0.721147 0.000000
vt 0.033093 0.438688 0.000000
vt 0.036764 0.126105 0.000000
vt 0.036764 0.436159 0.000000
vt 0.071702 0.436159 0.000000
vt 0.071702 0.126104 0.000000
vt 0.176761 0.830639 0.000000
vt 0.188814 0.830639 0.000000
vt 0.088953 0.808955 0.000000
vt 0.174232 0.808955 0.000000
vt 0.088953 0.808955 0.000000
vt 0.311880 0.436159 0.000000
vt 0.346818 0.436159 0.000000
vt 0.346818 0.126105 0.000000
vt 0.311880 0.126104 0.000000
vt 0.271671 0.771122 0.000000
vt 0.283724 0.771122 0.000000
vt 0.283724 0.723676 0.000000
vt 0.271671 0.723676 0.000000
vt 0.271671 0.830639 0.000000
vt 0.283724 0.830639 0.000000
vt 0.251895 0.721147 0.000000
vt 0.283724 0.721147 0.000000
vt 0.283724 0.438688 0.000000
vt 0.251895 0.438688 0.000000
vt 0.271671 0.771122 0.000000
vt 0.283724 0.771122 0.000000
vt 0.349348 0.001265 0.000000
vt 0.680044 0.001265 0.000000
vt 0.680044 0.086680 0.000000
vt 0.349348 0.086680 0.000000
vt 0.680044 0.436159 0.000000
vt 0.784242 0.086680 0.000000
vt 0.784242 0.436159 0.000000
vt 0.349348 0.436159 0.000000
vt 0.784242 0.001265 0.000000
# 58 texture coordinates

o Plane.2
usemtl default
f 3/4/4 6/3/3 5/2/2 1/1/1
f 8/6/3 7/5/5 5/2/2 6/3/3
f 4/8/7 2/7/6 7/5/5 8/6/3
f 9/5/9 10/2/8 5/2/2 7/5/5
f 15/2/13 16/3/12 13/4/11 11/1/10
f 15/2/13 17/5/14 18/6/12 16/3/12
f 17/5/14 12/7/16 14/8/15 18/6/12
f 15/2/13 20/2/18 19/5/17 17/5/14
f 11/1/10 13/4/11 3/4/4 1/1/1
f 13/4/11 16/3/12 6/3/3 3/4/4
f 15/2/13 11/1/10 1/1/1 5/2/2
f 16/3/12 18/6/12 8/6/3 6/3/3
f 18/6/12 14/8/15 4/8/7 8/6/3
f 14/8/15 12/7/16 2/7/6 4/8/7
f 12/7/16 17/5/14 7/5/5 2/7/6
f 17/5/14 19/5/17 9/5/9 7/5/5
f 19/5/17 20/2/18 10/2/8 9/5/9
f 20/2/18 15/2/13 5/2/2 10/2/8
f 36/12/22 38/11/21 32/10/20 21/9/19
f 25/16/26 30/15/25 31/14/24 23/13/23
f 33/12/28 43/18/27 30/17/25 25/9/26
f 21/20/19 32/15/20 29/19/30 27/13/29
f 40/24/34 42/23/33 28/22/32 22/21/31
f 34/28/28 36/27/22 21/26/19 27/25/29
f 43/18/37 41/30/33 26/29/36 30/17/35
f 30/15/35 26/32/36 24/31/39 31/14/38
f 38/11/41 40/30/34 22/29/31 32/10/40
f 32/15/40 22/32/31 28/33/32 29/19/42
f 33/37/28 25/36/26 23/35/23 35/34/22
f 34/28/28 33/37/28 35/34/22 36/27/22
f 35/41/22 23/40/23 31/39/24 37/38/21
f 36/12/22 35/41/22 37/38/21 38/11/21
f 37/38/41 31/39/38 24/43/39 39/42/34
f 38/11/41 37/38/41 39/42/34 40/30/34
f 39/47/34 24/46/39 26/45/36 41/44/33
f 40/24/34 39/47/34 41/44/33 42/23/33
f 43/18/37 44/48/37 42/42/33 41/30/33
f 44/48/37 29/49/42 28/43/32 42/42/33
f 33/12/28 34/41/28 44/48/27 43/18/27
f 34/41/28 27/40/29 29/49/30 44/48/27
f 60/12/46 62/11/45 56/10/44 45/9/43
f 49/16/50 54/15/49 55/14/48 47/13/47
f 57/12/52 67/18/51 54/17/49 49/9/50
f 45/20/43 56/15/44 53/19/54 51/13/53
f 64/24/58 66/23/57 52/22/56 46/21/55
f 58/28/52 60/27/46 45/26/43 51/25/53
f 67/18/61 65/30/57 50/29/60 54/17/59
f 54/15/59 50/32/60 48/31/63 55/14/62
f 62/11/65 64/30/58 46/29/55 56/10/64
f 56/15/64 46/32/55 52/33/56 53/19/66
f 57/37/52 49/36/50 47/35/47 59/34/46
f 58/28/52 57/37/52 59/34/46 60/27/46
f 59/41/46 47/40/47 55/39/48 61/38/45
f 60/12/46 59/41/46 61/38/45 62/11/45
f 61/38/65 55/39/62 48/43/63 63/42/58
f 62/11/65 61/38/65 63/42/58 64/30/58
f 63/47/58 48/46/63 50/45/60 65/44/57
f 64/24/58 63/47/58 65/44/57 66/23/57
f 67/18/61 68/48/61 66/42/57 65/30/57
f 68/48/61 53/49/66 52/43/56 66/42/57
f 57/12/52 58/41/52 68/48/51 67/18/51
f 58/41/52 51/40/53 53/49/54 68/48/51
f 75/53/68 76/52/69 74/51/68 69/50/67
f 72/56/71 77/55/70 76/52/69 73/54/70
f 71/57/72 73/54/70 76/52/69 75/53/68
f 70/58/73 74/51/68 76/52/69 77/55/70
f 80/4/77 83/3/76 82/2/75 78/1/74
f 85/6/76 84/5/78 82/2/75 83/3/76
f 81/8/80 79/7/79 84/5/78 85/6/76
f 86/5/82 87/2/81 82/2/75 84/5/78
f 92/2/86 93/3/85 90/4/84 88/1/83
f 92/2/86 94/5/88 95/6/87 93/3/85
f 94/5/88 89/7/90 91/8/89 95/6/87
f 92/2/86 97/2/92 96/5/91 94/5/88
f 88/1/83 90/4/84 80/4/77 78/1/74
f 90/4/84 93/3/85 83/3/76 80/4/77
f 92/2/86 88/1/83 78/1/74 82/2/75
f 93/3/85 95/6/87 85/6/76 83/3/76
f 95/6/87 91/8/89 81/8/80 85/6/76
f 91/8/89 89/7/90 79/7/79 81/8/80
f 89/7/90 94/5/88 84/5/78 79/7/79
f 94/5/88 96/5/91 86/5/82 84/5/78
f 96/5/91 97/2/92 87/2/81 86/5/82
f 97/2/92 92/2/86 82/2/75 87/2/81
f 113/12/22 115/11/21 109/10/20 98/9/19
f 102/16/26 107/15/25 108/14/24 100/13/23
f 110/12/28 120/18/27 107/17/25 102/9/26
f 98/20/19 109/15/20 106/19/30 104/13/29
f 117/24/34 119/23/33 105/22/32 99/21/31
f 111/28/28 113/27/22 98/26/19 104/25/29
f 120/18/37 118/30/33 103/29/36 107/17/35
f 107/15/35 103/32/36 101/31/39 108/14/38
f 115/11/41 117/30/34 99/29/31 109/10/40
f 109/15/40 99/32/31 105/33/32 106/19/42
f 110/37/28 102/36/26 100/35/23 112/34/22
f 111/28/28 110/37/28 112/34/22 113/27/22
f 112/41/22 100/40/23 108/39/24 114/38/21
f 113/12/22 112/41/22 114/38/21 115/11/21
f 114/38/41 108/39/38 101/43/39 116/42/34
f 115/11/41 114/38/41 116/42/34 117/30/34
f 116/47/34 101/46/39 103/45/36 118/44/33
f 117/24/34 116/47/34 118/44/33 119/23/33
f 120/18/37 121/48/37 119/42/33 118/30/33
f 121/48/37 106/49/42 105/43/32 119/42/33
f 110/12/28 111/41/28 121/48/27 120/18/27
f 111/41/28 104/40/29 106/49/30 121/48/27
f 137/12/46 139/11/45 133/10/44 122/9/43
f 126/16/50 131/15/49 132/14/48 124/13/47
f 134/12/52 144/18/51 131/17/49 126/9/50
f 122/20/43 133/15/44 130/19/54 128/13/53
f 141/24/58 143/23/57 129/22/56 123/21/55
f 135/28/52 137/27/46 122/26/43 128/25/53
f 144/18/61 142/30/57 127/29/60 131/17/59
f 131/15/59 127/32/60 125/31/63 132/14/62
f 139/11/65 141/30/58 123/29/55 133/10/64
f 133/15/64 123/32/55 129/33/56 130/19/66
f 134/37/52 126/36/50 124/35/47 136/34/46
f 135/28/52 134/37/52 136/34/46 137/27/46
f 136/41/46 124/40/47 132/39/48 138/38/45
f 137/12/46 136/41/46 138/38/45 139/11/45
f 138/38/65 132/39/62 125/43/63 140/42/58
f 139/11/65 138/38/65 140/42/58 141/30/58
f 140/47/58 125/46/63 127/45/60 142/44/57
f 141/24/58 140/47/58 142/44/57 143/23/57
f 144/18/61 145/48/61 143/42/57 142/30/57
f 145/48/61 130/49/66 129/43/56 143/42/57
f 134/12/52 135/41/52 145/48/51 144/18/51
f 135/41/52 128/40/53 130/49/54 145/48/51

