# Wavefront Obj file
# 
# verts: 128 uv-s: 232
mtllib Props_HermesOffice_TheChair.mtl

g Box001
#pivot 0.000000 0.000000 0.000000

v -11.489050 27.895741 12.432642
v -7.539057 27.895741 12.432642
v -3.589063 27.895741 12.432642
v 0.360931 27.895741 12.432642
v 4.310924 27.895741 12.432642
v 8.260918 27.895741 12.432642
v 12.210911 27.895741 12.432642
v -11.489050 27.895741 8.288427
v -7.539057 27.895741 8.288427
v -3.589063 27.895741 8.288427
v 0.360931 27.895741 8.288427
v 4.310924 27.895741 8.288427
v 8.260918 27.895741 8.288427
v 12.210911 27.895741 8.288427
v -11.489050 27.895741 4.144214
v -7.539057 27.895741 4.144214
v -3.589063 27.895741 4.144214
v 0.360931 27.895741 4.144214
v 4.310924 27.895741 4.144214
v 8.260918 27.895741 4.144214
v 12.210911 27.895741 4.144214
v -11.489050 27.895741 0.000000
v -7.539057 27.895741 0.000000
v -3.589063 27.895741 0.000000
v 0.360931 27.895741 0.000000
v 4.310924 27.895741 0.000000
v 8.260918 27.895741 0.000000
v 12.210911 27.895741 0.000000
v -11.489050 27.895741 -4.144214
v -7.539057 27.895741 -4.144214
v -3.589063 27.895741 -4.144214
v 0.360931 27.895741 -4.144214
v 4.310924 27.895741 -4.144214
v 8.260918 27.895741 -4.144214
v 12.210911 27.895741 -4.144214
v -11.489050 27.895741 -8.288427
v -7.539057 27.895741 -8.288427
v -3.589063 27.895741 -8.288427
v 0.360931 27.895741 -8.288427
v 4.310924 27.895741 -8.288427
v 8.260918 27.895741 -8.288427
v 12.210911 27.895741 -8.288427
v -11.489050 27.895741 -12.432642
v -7.539057 27.895741 -12.432642
v -3.589063 27.895741 -12.432642
v 0.360931 27.895741 -12.432642
v 4.310924 27.895741 -12.432642
v 8.260918 27.895741 -12.432642
v 12.210911 27.895741 -12.432642
v -11.489050 32.937260 12.432642
v -7.539057 32.937260 12.432642
v -3.589063 32.937260 12.432642
v 0.360931 32.937260 12.432642
v 4.310924 32.937260 12.432642
v 8.260918 32.937260 12.432642
v 12.210911 32.937260 12.432642
v -11.489050 32.937260 8.288427
v -7.539057 32.937260 8.288427
v -3.589063 32.937260 8.288427
v 0.360931 32.937260 8.288427
v 4.310924 32.937260 8.288427
v 8.260918 32.937260 8.288427
v 12.210911 32.937260 8.288427
v -11.489050 32.937260 4.144214
v -7.539057 32.937260 4.144214
v -3.589063 32.937260 4.144214
v 0.360931 32.937260 4.144214
v 4.310924 32.937260 4.144214
v 8.260918 32.937260 4.144214
v 12.210911 32.937260 4.144214
v -11.489050 32.937260 0.000000
v -7.539057 32.937260 0.000000
v -3.589063 32.937260 0.000000
v 0.360931 32.937260 0.000000
v 4.310924 32.937260 0.000000
v 8.260918 32.937260 0.000000
v 12.210911 32.937260 0.000000
v -11.489050 32.937260 -4.144214
v -7.539057 32.937260 -4.144214
v -3.589063 32.937260 -4.144214
v 0.360931 32.937260 -4.144214
v 4.310924 32.937260 -4.144214
v 8.260918 32.937260 -4.144214
v 12.210911 32.937260 -4.144214
v -11.489050 32.937260 -8.288427
v -7.539057 32.937260 -8.288427
v -3.589063 32.937260 -8.288427
v 0.360931 32.937260 -8.288427
v 4.310924 32.937260 -8.288427
v 8.260918 32.937260 -8.288427
v 12.210911 32.937260 -8.288427
v -11.489050 32.937260 -12.432642
v -7.539057 32.937260 -12.432642
v -3.589063 32.937260 -12.432642
v 0.360931 32.937260 -12.432642
v 4.310924 32.937260 -12.432642
v 8.260918 32.937260 -12.432642
v 12.210911 32.937260 -12.432642
v 8.260918 58.742527 8.288427
v 8.260918 58.742527 12.432642
v 12.210911 58.742527 12.432642
v 12.210911 58.742527 8.288427
v 12.210911 58.742527 4.144214
v 12.210911 58.742527 0.000000
v 12.210911 58.742527 -4.144214
v 12.210911 58.742527 -8.288427
v 12.210911 58.742527 -12.432642
v 8.260918 58.742527 -12.432642
v 8.260918 58.742527 -8.288427
v 8.260918 58.742527 -4.144214
v 8.260918 58.742527 0.000000
v 8.260918 58.742527 4.144214
v -11.489050 -0.191696 12.432642
v -11.489050 -0.191696 8.288427
v -7.539057 -0.191696 8.288427
v -7.539057 -0.191696 12.432642
v 8.260918 -0.191696 12.432642
v 8.260918 -0.191696 8.288427
v 12.210911 -0.191696 8.288427
v 12.210911 -0.191696 12.432642
v -7.539057 -0.191696 -8.288427
v -11.489050 -0.191696 -8.288427
v -11.489050 -0.191696 -12.432642
v -7.539057 -0.191696 -12.432642
v 12.210911 -0.191696 -8.288427
v 8.260918 -0.191696 -8.288427
v 8.260918 -0.191696 -12.432642
v 12.210911 -0.191696 -12.432642
# 128 positions

vt 0.621372 0.349425
vt 0.621372 0.401602
vt 0.571640 0.401602
vt 0.571640 0.349425
vt 0.267525 0.033541
vt 0.267525 0.085720
vt 0.217793 0.085720
vt 0.217792 0.033543
vt 0.168060 0.085720
vt 0.168060 0.033543
vt 0.118328 0.085721
vt 0.118327 0.033543
vt 0.068595 0.085721
vt 0.068595 0.033544
vt 0.621372 0.411173
vt 0.621372 0.463351
vt 0.571639 0.463351
vt 0.571639 0.411173
vt 0.317257 0.085721
vt 0.317257 0.137898
vt 0.267525 0.137898
vt 0.217792 0.137898
vt 0.168060 0.137898
vt 0.118328 0.137898
vt 0.068595 0.137898
vt 0.018863 0.137898
vt 0.018863 0.085721
vt 0.317256 0.190076
vt 0.267524 0.190075
vt 0.217792 0.190075
vt 0.168060 0.190075
vt 0.118328 0.190075
vt 0.068595 0.190076
vt 0.018863 0.190076
vt 0.317256 0.242253
vt 0.267524 0.242253
vt 0.217792 0.242253
vt 0.168060 0.242253
vt 0.118328 0.242253
vt 0.068595 0.242253
vt 0.018863 0.242253
vt 0.317255 0.294431
vt 0.267524 0.294431
vt 0.217792 0.294430
vt 0.168059 0.294430
vt 0.118327 0.294430
vt 0.068595 0.294430
vt 0.018863 0.294430
vt 0.571640 0.525523
vt 0.571640 0.473345
vt 0.621372 0.473345
vt 0.621372 0.525523
vt 0.267523 0.346608
vt 0.217791 0.346608
vt 0.168059 0.346608
vt 0.118327 0.346608
vt 0.068595 0.346608
vt 0.571640 0.587272
vt 0.571640 0.535094
vt 0.621372 0.535094
vt 0.621372 0.587272
vt 0.065034 0.985181
vt 0.065037 0.935450
vt 0.117215 0.935455
vt 0.117211 0.985187
vt 0.065041 0.885719
vt 0.117219 0.885724
vt 0.065045 0.835988
vt 0.117222 0.835992
vt 0.065048 0.786257
vt 0.117226 0.786261
vt 0.065051 0.736527
vt 0.117229 0.736530
vt 0.065052 0.411629
vt 0.065051 0.361898
vt 0.117229 0.361899
vt 0.117229 0.411631
vt 0.169393 0.935460
vt 0.169388 0.985192
vt 0.169396 0.885728
vt 0.169401 0.835996
vt 0.169404 0.786264
vt 0.169407 0.736533
vt 0.169406 0.361902
vt 0.169407 0.411633
vt 0.221570 0.935464
vt 0.221565 0.985196
vt 0.221574 0.885732
vt 0.221578 0.835999
vt 0.221582 0.786267
vt 0.221585 0.736535
vt 0.221583 0.361904
vt 0.221584 0.411635
vt 0.273747 0.935468
vt 0.273743 0.985200
vt 0.273751 0.885735
vt 0.273756 0.836003
vt 0.273759 0.786270
vt 0.273763 0.736538
vt 0.273760 0.361906
vt 0.273761 0.411637
vt 0.325925 0.935472
vt 0.325920 0.985204
vt 0.325929 0.885739
vt 0.325933 0.836006
vt 0.325937 0.786273
vt 0.325941 0.736541
vt 0.325937 0.361907
vt 0.325938 0.411639
vt 0.378102 0.935476
vt 0.378097 0.985209
vt 0.378106 0.885743
vt 0.378111 0.836010
vt 0.378115 0.786277
vt 0.378119 0.736543
vt 0.378114 0.361907
vt 0.378115 0.411640
vt 0.805250 0.234515
vt 0.755517 0.234546
vt 0.755496 0.171071
vt 0.805223 0.171045
vt 0.705779 0.234557
vt 0.705771 0.171082
vt 0.656041 0.234557
vt 0.656045 0.171082
vt 0.606303 0.234549
vt 0.606316 0.171074
vt 0.556567 0.234534
vt 0.556587 0.171058
vt 0.506834 0.234515
vt 0.506854 0.171041
vt 0.436367 0.596838
vt 0.488545 0.596825
vt 0.488552 0.660301
vt 0.436375 0.660309
vt 0.540725 0.596823
vt 0.540730 0.660299
vt 0.592906 0.596823
vt 0.592908 0.660299
vt 0.645086 0.596825
vt 0.645086 0.660301
vt 0.697265 0.596828
vt 0.697264 0.660303
vt 0.749443 0.596830
vt 0.749442 0.660307
vt 0.805250 0.234515
vt 0.755517 0.234546
vt 0.755496 0.171071
vt 0.805223 0.171045
vt 0.705779 0.234557
vt 0.705771 0.171082
vt 0.656041 0.234557
vt 0.656045 0.171082
vt 0.606303 0.234549
vt 0.606316 0.171074
vt 0.556567 0.234534
vt 0.556587 0.171058
vt 0.506834 0.234515
vt 0.506854 0.171041
vt 0.805250 0.234515
vt 0.755517 0.234546
vt 0.755496 0.171071
vt 0.805223 0.171045
vt 0.705779 0.234557
vt 0.705771 0.171082
vt 0.656041 0.234557
vt 0.656045 0.171082
vt 0.606303 0.234549
vt 0.606316 0.171074
vt 0.556567 0.234534
vt 0.556587 0.171058
vt 0.506834 0.234515
vt 0.506854 0.171041
vt 0.015319 0.736528
vt 0.015319 0.411628
vt 0.488527 0.985200
vt 0.436350 0.985201
vt 0.540702 0.985198
vt 0.592876 0.985198
vt 0.645051 0.985199
vt 0.697227 0.985202
vt 0.749405 0.985209
vt 0.427851 0.736541
vt 0.427847 0.411641
vt 0.556415 0.588166
vt 0.506683 0.588145
vt 0.867916 0.982145
vt 0.818184 0.982145
vt 0.818184 0.628511
vt 0.867916 0.628511
vt 0.878400 0.027160
vt 0.930576 0.026969
vt 0.931871 0.380599
vt 0.879695 0.380789
vt 0.805511 0.588145
vt 0.755780 0.588181
vt 0.926953 0.751706
vt 0.874776 0.751706
vt 0.874776 0.398072
vt 0.926953 0.398072
vt 0.808905 0.985209
vt 0.759173 0.985209
vt 0.759173 0.631575
vt 0.808905 0.631575
vt 0.435915 0.243215
vt 0.488093 0.243151
vt 0.556415 0.588166
vt 0.506683 0.588145
vt 0.696007 0.040479
vt 0.695682 0.090209
vt 0.342060 0.087893
vt 0.342386 0.038162
vt 0.805511 0.588145
vt 0.755780 0.588181
vt 0.556415 0.588166
vt 0.506683 0.588145
vt 0.698601 0.098420
vt 0.698264 0.150596
vt 0.344643 0.148316
vt 0.344979 0.096140
vt 0.818938 0.027378
vt 0.868670 0.027196
vt 0.869965 0.380825
vt 0.820233 0.381006
vt 0.988702 0.751706
vt 0.936525 0.751706
vt 0.936525 0.398073
vt 0.988702 0.398073
vt 0.805511 0.588145
vt 0.755780 0.588181
vt 0.697266 0.243194
vt 0.749443 0.243194
# 232 texture coordinates

vn 0.000000 -1.000000 0.000000
vn 0.000000 -1.000000 0.000000
vn 0.000000 -1.000000 0.000000
vn 0.000000 -1.000000 0.000000
vn 0.000000 -1.000000 0.000000
vn 0.000000 -1.000000 0.000000
vn 0.000000 -1.000000 0.000000
vn 0.000000 -1.000000 0.000000
vn 0.000000 -1.000000 0.000000
vn 0.000000 -1.000000 0.000000
vn 0.000000 -1.000000 0.000000
vn 0.000000 -1.000000 0.000000
vn 0.000000 -1.000000 0.000000
vn 0.000000 -1.000000 0.000000
vn 0.000000 -1.000000 0.000000
vn 0.000000 -1.000000 0.000000
vn 0.000000 -1.000000 0.000000
vn 0.000000 -1.000000 0.000000
vn 0.000000 -1.000000 0.000000
vn 0.000000 -1.000000 0.000000
vn 0.000000 -1.000000 0.000000
vn 0.000000 -1.000000 0.000000
vn 0.000000 -1.000000 0.000000
vn 0.000000 -1.000000 0.000000
vn 0.000000 -1.000000 0.000000
vn 0.000000 -1.000000 0.000000
vn 0.000000 -1.000000 0.000000
vn 0.000000 -1.000000 0.000000
vn 0.000000 -1.000000 0.000000
vn 0.000000 -1.000000 0.000000
vn 0.000000 -1.000000 0.000000
vn 0.000000 -1.000000 0.000000
vn 0.000000 -1.000000 0.000000
vn 0.000000 -1.000000 0.000000
vn 0.000000 -1.000000 0.000000
vn 0.000000 -1.000000 0.000000
vn 0.000000 -1.000000 0.000000
vn 0.000000 -1.000000 0.000000
vn 0.000000 -1.000000 0.000000
vn 0.000000 -1.000000 0.000000
vn 0.000000 -1.000000 0.000000
vn 0.000000 -1.000000 0.000000
vn 0.000000 -1.000000 0.000000
vn 0.000000 -1.000000 0.000000
vn 0.000000 -1.000000 0.000000
vn 0.000000 -1.000000 0.000000
vn 0.000000 -1.000000 0.000000
vn 0.000000 -1.000000 0.000000
vn 0.000000 -1.000000 0.000000
vn 0.000000 -1.000000 0.000000
vn 0.000000 -1.000000 0.000000
vn 0.000000 -1.000000 0.000000
vn 0.000000 -1.000000 0.000000
vn 0.000000 -1.000000 0.000000
vn 0.000000 -1.000000 0.000000
vn 0.000000 -1.000000 0.000000
vn 0.000000 -1.000000 0.000000
vn 0.000000 -1.000000 0.000000
vn 0.000000 -1.000000 0.000000
vn 0.000000 -1.000000 0.000000
vn 0.000000 -1.000000 0.000000
vn 0.000000 1.000000 0.000000
vn 0.000000 1.000000 0.000000
vn 0.000000 1.000000 0.000000
vn 0.000000 1.000000 0.000000
vn 0.000000 1.000000 0.000000
vn 0.000000 1.000000 0.000000
vn 0.000000 1.000000 0.000000
vn 0.000000 1.000000 0.000000
vn 0.000000 1.000000 0.000000
vn 0.000000 1.000000 0.000000
vn 0.000000 1.000000 0.000000
vn 0.000000 1.000000 0.000000
vn 0.000000 1.000000 0.000000
vn 0.000000 1.000000 0.000000
vn 0.000000 1.000000 0.000000
vn 0.000000 1.000000 0.000000
vn 0.000000 1.000000 0.000000
vn 0.000000 1.000000 0.000000
vn 0.000000 1.000000 0.000000
vn 0.000000 1.000000 0.000000
vn 0.000000 1.000000 0.000000
vn 0.000000 1.000000 0.000000
vn 0.000000 1.000000 0.000000
vn 0.000000 1.000000 0.000000
vn 0.000000 1.000000 0.000000
vn 0.000000 1.000000 0.000000
vn 0.000000 1.000000 0.000000
vn 0.000000 1.000000 0.000000
vn 0.000000 1.000000 0.000000
vn 0.000000 1.000000 0.000000
vn 0.000000 1.000000 0.000000
vn 0.000000 1.000000 0.000000
vn 0.000000 1.000000 0.000000
vn 0.000000 1.000000 0.000000
vn 0.000000 1.000000 0.000000
vn 0.000000 1.000000 0.000000
vn 0.000000 1.000000 0.000000
vn 0.000000 1.000000 0.000000
vn 0.000000 1.000000 0.000000
vn 0.000000 1.000000 0.000000
vn 0.000000 1.000000 0.000000
vn 0.000000 1.000000 0.000000
vn 0.000000 1.000000 0.000000
vn 0.000000 1.000000 0.000000
vn 0.000000 1.000000 0.000000
vn 0.000000 1.000000 0.000000
vn 0.000000 1.000000 0.000000
vn 0.000000 1.000000 0.000000
vn 0.000000 1.000000 0.000000
vn 0.000000 1.000000 0.000000
vn 0.000000 1.000000 0.000000
vn 0.000000 1.000000 0.000000
vn 0.000000 1.000000 0.000000
vn 0.000000 1.000000 0.000000
vn 0.000000 1.000000 0.000000
vn 0.000000 1.000000 0.000000
vn 0.000000 0.000000 1.000000
vn 0.000000 0.000000 1.000000
vn 0.000000 0.000000 1.000000
vn 0.000000 0.000000 1.000000
vn 0.000000 0.000000 1.000000
vn 0.000000 0.000000 1.000000
vn 0.000000 0.000000 1.000000
vn 0.000000 0.000000 1.000000
vn 0.000000 0.000000 1.000000
vn 0.000000 0.000000 1.000000
vn 0.000000 0.000000 1.000000
vn 0.000000 0.000000 1.000000
vn 0.000000 0.000000 1.000000
vn 0.000000 0.000000 1.000000
vn 1.000000 0.000000 0.000000
vn 1.000000 0.000000 0.000000
vn 1.000000 0.000000 0.000000
vn 1.000000 0.000000 0.000000
vn 1.000000 0.000000 0.000000
vn 1.000000 0.000000 0.000000
vn 1.000000 0.000000 0.000000
vn 1.000000 0.000000 0.000000
vn 1.000000 0.000000 0.000000
vn 1.000000 0.000000 0.000000
vn 1.000000 0.000000 0.000000
vn 1.000000 0.000000 0.000000
vn 1.000000 0.000000 0.000000
vn 1.000000 0.000000 0.000000
vn 0.000000 0.000000 -1.000000
vn 0.000000 0.000000 -1.000000
vn 0.000000 0.000000 -1.000000
vn 0.000000 0.000000 -1.000000
vn 0.000000 0.000000 -1.000000
vn 0.000000 0.000000 -1.000000
vn 0.000000 0.000000 -1.000000
vn 0.000000 0.000000 -1.000000
vn 0.000000 0.000000 -1.000000
vn 0.000000 0.000000 -1.000000
vn 0.000000 0.000000 -1.000000
vn 0.000000 0.000000 -1.000000
vn 0.000000 0.000000 -1.000000
vn 0.000000 0.000000 -1.000000
vn -1.000000 0.000000 0.000000
vn -1.000000 0.000000 0.000000
vn -1.000000 0.000000 0.000000
vn -1.000000 0.000000 0.000000
vn -1.000000 0.000000 0.000000
vn -1.000000 0.000000 0.000000
vn -1.000000 0.000000 0.000000
vn -1.000000 0.000000 0.000000
vn -1.000000 0.000000 0.000000
vn -1.000000 0.000000 0.000000
vn -1.000000 0.000000 0.000000
vn -1.000000 0.000000 0.000000
vn -1.000000 0.000000 0.000000
vn -1.000000 0.000000 0.000000
vn -1.000000 0.000000 0.000000
vn -1.000000 0.000000 0.000000
vn -1.000000 0.000000 0.000000
vn -1.000000 0.000000 0.000000
vn 0.000000 0.000000 1.000000
vn 0.000000 0.000000 1.000000
vn 1.000000 0.000000 0.000000
vn 1.000000 0.000000 0.000000
vn 1.000000 0.000000 0.000000
vn 1.000000 0.000000 0.000000
vn 1.000000 0.000000 0.000000
vn 1.000000 0.000000 0.000000
vn 1.000000 0.000000 0.000000
vn 0.000000 0.000000 -1.000000
vn 0.000000 0.000000 -1.000000
vn -1.000000 0.000000 0.000000
vn -1.000000 0.000000 0.000000
vn -1.000000 0.000000 0.000000
vn -1.000000 0.000000 0.000000
vn -1.000000 0.000000 0.000000
vn -1.000000 0.000000 0.000000
vn -1.000000 0.000000 0.000000
vn -1.000000 0.000000 0.000000
vn -1.000000 0.000000 0.000000
vn -1.000000 0.000000 0.000000
vn -1.000000 0.000000 0.000000
vn -1.000000 0.000000 0.000000
vn 0.000000 0.000000 -1.000000
vn 0.000000 0.000000 -1.000000
vn 0.000000 0.000000 -1.000000
vn 0.000000 0.000000 -1.000000
vn 1.000000 0.000000 0.000000
vn 1.000000 0.000000 0.000000
vn 1.000000 0.000000 0.000000
vn 1.000000 0.000000 0.000000
vn 0.000000 0.000000 1.000000
vn 0.000000 0.000000 1.000000
vn -1.000000 0.000000 0.000000
vn -1.000000 0.000000 0.000000
vn -1.000000 0.000000 0.000000
vn -1.000000 0.000000 0.000000
vn 0.000000 0.000000 -1.000000
vn 0.000000 0.000000 -1.000000
vn 0.000000 0.000000 -1.000000
vn 0.000000 0.000000 -1.000000
vn 1.000000 0.000000 0.000000
vn 1.000000 0.000000 0.000000
vn 0.000000 0.000000 1.000000
vn 0.000000 0.000000 1.000000
vn 0.000000 0.000000 1.000000
vn 0.000000 0.000000 1.000000
vn 0.000000 0.000000 1.000000
vn 0.000000 0.000000 1.000000
vn -1.000000 0.000000 0.000000
vn -1.000000 0.000000 0.000000
vn 0.000000 0.000000 -1.000000
vn 0.000000 0.000000 -1.000000
vn 1.000000 0.000000 0.000000
vn 1.000000 0.000000 0.000000
vn 1.000000 0.000000 0.000000
vn 1.000000 0.000000 0.000000
vn 0.000000 0.000000 1.000000
vn 0.000000 0.000000 1.000000
vn 0.000000 0.000000 1.000000
vn 0.000000 0.000000 1.000000
vn -1.000000 0.000000 0.000000
vn -1.000000 0.000000 0.000000
vn -1.000000 0.000000 0.000000
vn -1.000000 0.000000 0.000000
vn 0.000000 0.000000 -1.000000
vn 0.000000 0.000000 -1.000000
vn 1.000000 0.000000 0.000000
vn 1.000000 0.000000 0.000000
# 246 normals

usemtl 
s 1
f 113/1/1 114/2/2 115/3/3 116/4/4
s 2
f 2/5/5 9/6/6 10/7/7 3/8/8
f 3/8/8 10/7/7 11/9/9 4/10/10
f 4/10/10 11/9/9 12/11/11 5/12/12
f 5/12/12 12/11/11 13/13/13 6/14/14
f 8/19/19 15/20/20 16/21/21 9/6/6
f 9/6/6 16/21/21 17/22/22 10/7/7
f 10/7/7 17/22/22 18/23/23 11/9/9
f 11/9/9 18/23/23 19/24/24 12/11/11
f 12/11/11 19/24/24 20/25/25 13/13/13
f 13/13/13 20/25/25 21/26/26 14/27/27
f 15/20/20 22/28/28 23/29/29 16/21/21
f 16/21/21 23/29/29 24/30/30 17/22/22
f 17/22/22 24/30/30 25/31/31 18/23/23
f 18/23/23 25/31/31 26/32/32 19/24/24
f 19/24/24 26/32/32 27/33/33 20/25/25
f 20/25/25 27/33/33 28/34/34 21/26/26
f 22/28/28 29/35/35 30/36/36 23/29/29
f 23/29/29 30/36/36 31/37/37 24/30/30
f 24/30/30 31/37/37 32/38/38 25/31/31
f 25/31/31 32/38/38 33/39/39 26/32/32
f 26/32/32 33/39/39 34/40/40 27/33/33
f 27/33/33 34/40/40 35/41/41 28/34/34
f 29/35/35 36/42/42 37/43/43 30/36/36
f 30/36/36 37/43/43 38/44/44 31/37/37
f 31/37/37 38/44/44 39/45/45 32/38/38
f 32/38/38 39/45/45 40/46/46 33/39/39
f 33/39/39 40/46/46 41/47/47 34/40/40
f 34/40/40 41/47/47 42/48/48 35/41/41
f 37/43/43 44/53/53 45/54/54 38/44/44
f 38/44/44 45/54/54 46/55/55 39/45/45
f 39/45/45 46/55/55 47/56/56 40/46/46
f 40/46/46 47/56/56 48/57/57 41/47/47
s 3
f 117/15/15 118/16/16 119/17/17 120/18/18
s 4
f 122/49/49 123/50/50 124/51/51 121/52/52
s 5
f 126/58/58 127/59/59 128/60/60 125/61/61
s 6
f 50/62/62 51/63/63 58/64/64 57/65/65
f 51/63/63 52/66/66 59/67/67 58/64/64
f 52/66/66 53/68/68 60/69/69 59/67/67
f 53/68/68 54/70/70 61/71/71 60/69/69
f 54/70/70 55/72/72 62/73/73 61/71/71
f 57/65/65 58/64/64 65/78/78 64/79/79
f 58/64/64 59/67/67 66/80/80 65/78/78
f 59/67/67 60/69/69 67/81/81 66/80/80
f 60/69/69 61/71/71 68/82/82 67/81/81
f 61/71/71 62/73/73 69/83/83 68/82/82
f 64/79/79 65/78/78 72/86/86 71/87/87
f 65/78/78 66/80/80 73/88/88 72/86/86
f 66/80/80 67/81/81 74/89/89 73/88/88
f 67/81/81 68/82/82 75/90/90 74/89/89
f 68/82/82 69/83/83 76/91/91 75/90/90
f 71/87/87 72/86/86 79/94/94 78/95/95
f 72/86/86 73/88/88 80/96/96 79/94/94
f 73/88/88 74/89/89 81/97/97 80/96/96
f 74/89/89 75/90/90 82/98/98 81/97/97
f 75/90/90 76/91/91 83/99/99 82/98/98
f 78/95/95 79/94/94 86/102/102 85/103/103
f 79/94/94 80/96/96 87/104/104 86/102/102
f 80/96/96 81/97/97 88/105/105 87/104/104
f 81/97/97 82/98/98 89/106/106 88/105/105
f 82/98/98 83/99/99 90/107/107 89/106/106
f 85/103/103 86/102/102 93/110/110 92/111/111
f 86/102/102 87/104/104 94/112/112 93/110/110
f 87/104/104 88/105/105 95/113/113 94/112/112
f 88/105/105 89/106/106 96/114/114 95/113/113
f 89/106/106 90/107/107 97/115/115 96/114/114
s 7
f 100/74/74 101/75/75 102/76/76 99/77/77
f 99/77/77 102/76/76 103/84/84 112/85/85
f 112/85/85 103/84/84 104/92/92 111/93/93
f 111/93/93 104/92/92 105/100/100 110/101/101
f 110/101/101 105/100/100 106/108/108 109/109/109
f 109/109/109 106/108/108 107/116/116 108/117/117
s 8
f 1/118/118 2/119/119 51/120/120 50/121/121
f 2/119/119 3/122/122 52/123/123 51/120/120
f 3/122/122 4/124/124 53/125/125 52/123/123
f 4/124/124 5/126/126 54/127/127 53/125/125
f 5/126/126 6/128/128 55/129/129 54/127/127
f 6/128/128 7/130/130 56/131/131 55/129/129
f 55/72/129 56/174/131 101/175/178 100/74/179
f 2/119/119 1/118/118 113/195/209 116/196/210
f 7/130/130 6/128/128 117/207/221 120/208/222
s 9
f 7/132/132 14/133/133 63/134/134 56/135/135
f 14/133/133 21/136/136 70/137/137 63/134/134
f 21/136/136 28/138/138 77/139/139 70/137/137
f 28/138/138 35/140/140 84/141/141 77/139/139
f 35/140/140 42/142/142 91/143/143 84/141/141
f 42/142/142 49/144/144 98/145/145 91/143/143
f 56/135/135 63/134/134 102/176/180 101/177/181
f 63/134/134 70/137/137 103/178/182 102/176/180
f 70/137/137 77/139/139 104/179/183 103/178/182
f 77/139/139 84/141/141 105/180/184 104/179/183
f 84/141/141 91/143/143 106/181/185 105/180/184
f 91/143/143 98/145/145 107/182/186 106/181/185
f 14/133/133 7/132/132 120/205/219 119/206/220
f 49/144/144 42/142/142 125/231/245 128/232/246
s 10
f 49/146/146 48/147/147 97/148/148 98/149/149
f 48/147/147 47/150/150 96/151/151 97/148/148
f 47/150/150 46/152/152 95/153/153 96/151/151
f 46/152/152 45/154/154 94/155/155 95/153/153
f 45/154/154 44/156/156 93/157/157 94/155/155
f 44/156/156 43/158/158 92/159/159 93/157/157
f 98/183/149 97/115/148 108/117/187 107/184/188
f 43/158/158 44/156/156 124/215/229 123/216/230
f 48/147/147 49/146/146 128/229/243 127/230/244
s 11
f 43/160/160 36/161/161 85/162/162 92/163/163
f 36/161/161 29/164/164 78/165/165 85/162/162
f 29/164/164 22/166/166 71/167/167 78/165/165
f 22/166/166 15/168/168 64/169/169 71/167/167
f 15/168/168 8/170/170 57/171/171 64/169/169
f 8/170/170 1/172/172 50/173/173 57/171/171
f 1/172/172 8/170/170 114/185/199 113/186/200
f 36/161/161 43/160/160 123/213/227 122/214/228
s 12
f 62/73/174 55/72/175 100/74/176 99/77/177
f 97/115/189 90/107/190 109/109/191 108/117/192
f 90/107/190 83/99/193 110/101/194 109/109/191
f 83/99/193 76/91/195 111/93/196 110/101/194
f 76/91/195 69/83/197 112/85/198 111/93/196
f 69/83/197 62/73/174 99/77/177 112/85/198
s 13
f 8/187/201 9/188/202 115/189/203 114/190/204
s 14
f 9/191/205 2/192/206 116/193/207 115/194/208
s 15
f 6/197/211 13/198/212 118/199/213 117/200/214
s 16
f 13/201/215 14/202/216 119/203/217 118/204/218
s 17
f 37/209/223 36/210/224 122/211/225 121/212/226
s 18
f 44/217/231 37/218/232 121/219/233 124/220/234
s 19
f 42/221/235 41/222/236 126/223/237 125/224/238
s 20
f 41/225/239 48/226/240 127/227/241 126/228/242

# 126 faces
