# Wavefront Obj file
# 
# verts: 40 uv-s: 64
mtllib unwrapped_zues_small.mtl

g small_package
#pivot 0.000000 0.000000 0.000000

v -30.389799 0.000000 17.921200
v -30.389799 0.000000 5.973700
v 30.389799 0.000000 5.973700
v 30.389799 0.000000 17.921200
v -30.389799 0.000000 -5.973700
v 30.389799 0.000000 -5.973700
v -30.389799 0.000000 -17.921200
v 30.389799 0.000000 -17.921200
v -30.389799 37.854099 17.921200
v 30.389799 37.854099 17.921200
v 30.389799 37.854099 5.973700
v -30.389799 37.854099 5.973700
v -31.486700 38.950901 5.973700
v 31.486700 38.950901 5.973700
v 31.486700 38.950901 -5.973700
v -31.486700 38.950901 -5.973700
v -30.389799 37.854099 -5.973700
v 30.389799 37.854099 -5.973700
v 30.389799 37.854099 -17.921200
v -30.389799 37.854099 -17.921200
v 30.389799 12.618000 17.921200
v -30.389799 12.618000 17.921200
v 30.389799 25.236099 17.921200
v -30.389799 25.236099 17.921200
v 30.389799 12.618000 5.973700
v 30.389799 12.618000 -5.973700
v 30.389799 12.618000 -17.921200
v 30.389799 25.236099 5.973700
v 30.389799 25.236099 -5.973700
v 30.389799 25.236099 -17.921200
v 31.486700 25.236099 5.973700
v 31.486700 25.236099 -5.973700
v -30.389799 12.618000 -17.921200
v -30.389799 25.236099 -17.921200
v -30.389799 12.618000 -5.973700
v -30.389799 12.618000 5.973700
v -30.389799 25.236099 -5.973700
v -30.389799 25.236099 5.973700
v -31.486700 25.236099 -5.973700
v -31.486700 25.236099 5.973700
# 40 positions

vt 0.500005 0.801909
vt 0.499995 0.742549
vt 0.801941 0.742526
vt 0.801948 0.801867
vt 0.499995 0.683190
vt 0.801939 0.683181
vt 0.500001 0.623826
vt 0.801945 0.623833
vt 0.311947 0.801909
vt 0.010001 0.801879
vt 0.010007 0.742526
vt 0.311949 0.742556
vt 0.394550 0.965162
vt 0.077623 0.965356
vt 0.076041 0.905300
vt 0.392908 0.905107
vt 0.311944 0.683192
vt 0.010000 0.683152
vt 0.010008 0.623799
vt 0.311951 0.623840
vt 0.801972 0.864533
vt 0.500026 0.864614
vt 0.801996 0.927210
vt 0.500051 0.927311
vt 0.802020 0.989893
vt 0.500076 0.990000
vt 0.864626 0.742533
vt 0.864629 0.801883
vt 0.864626 0.683182
vt 0.864630 0.623829
vt 0.927311 0.742535
vt 0.927313 0.801888
vt 0.927311 0.683184
vt 0.927316 0.623831
vt 0.989996 0.742534
vt 0.989998 0.801887
vt 0.014467 0.963505
vt 0.013152 0.905465
vt 0.990000 0.623835
vt 0.989996 0.683189
vt 0.500014 0.561129
vt 0.801955 0.561166
vt 0.500027 0.498438
vt 0.801969 0.498491
vt 0.500040 0.435753
vt 0.801982 0.435809
vt 0.437311 0.683201
vt 0.437315 0.623843
vt 0.437312 0.742557
vt 0.437320 0.801909
vt 0.374628 0.683201
vt 0.374633 0.623846
vt 0.374630 0.742558
vt 0.374632 0.801910
vt 0.456067 0.906871
vt 0.457446 0.964911
vt 0.390677 0.971422
vt 0.081495 0.971422
vt 0.011229 0.967592
vt 0.010000 0.901553
vt 0.079916 0.899038
vt 0.389039 0.899038
vt 0.459299 0.902781
vt 0.460603 0.968819
# 64 texture coordinates

vn -0.577350 -0.577350 0.577350
vn -0.707107 -0.707107 0.000000
vn 0.707107 -0.707107 0.000000
vn 0.577350 -0.577350 0.577350
vn -0.577350 -0.577350 -0.577350
vn 0.577350 -0.577350 -0.577350
vn -0.485071 0.485071 0.727607
vn 0.485071 0.485071 0.727607
vn 0.408248 0.408248 0.816497
vn -0.408248 0.408248 0.816497
vn 0.485071 0.485071 -0.727607
vn -0.485071 0.485071 -0.727607
vn -0.408248 0.408248 -0.816497
vn 0.408248 0.408248 -0.816497
vn 0.707107 0.000000 0.707107
vn -0.707107 0.000000 0.707107
vn 1.000000 0.000000 0.000000
vn 0.707107 0.000000 -0.707107
vn 0.904534 -0.301511 0.301511
vn 0.904534 -0.301511 -0.301511
vn 0.707107 0.000000 -0.707107
vn -0.707107 0.000000 -0.707107
vn -0.707107 0.000000 -0.707107
vn -1.000000 0.000000 0.000000
vn -0.904534 -0.301511 -0.301511
vn -0.904534 -0.301511 0.301511
# 26 normals

usemtl wire_086086086
f 1/1/1 2/2/2 3/3/3 4/4/4
f 2/2/2 5/5/2 6/6/3 3/3/3
f 5/5/2 7/7/5 8/8/6 6/6/3
f 9/9/7 10/10/8 11/11/9 12/12/10
f 13/13/7 14/14/8 15/15/11 16/16/12
f 17/17/13 18/18/14 19/19/11 20/20/12
f 1/1/1 4/4/4 21/21/15 22/22/16
f 22/22/16 21/21/15 23/23/15 24/24/16
f 24/24/16 23/23/15 10/25/8 9/26/7
f 4/4/4 3/3/3 25/27/17 21/28/15
f 3/3/3 6/6/3 26/29/17 25/27/17
f 6/6/3 8/8/6 27/30/18 26/29/17
f 21/28/15 25/27/17 28/31/19 23/32/15
f 25/27/17 26/29/17 29/33/20 28/31/19
f 26/29/17 27/30/18 30/34/21 29/33/20
f 23/32/15 28/31/19 11/35/9 10/36/8
f 31/37/4 32/38/6 15/15/11 14/14/8
f 29/33/20 30/34/21 19/39/11 18/40/14
f 8/8/6 7/7/5 33/41/22 27/42/18
f 27/42/18 33/41/22 34/43/23 30/44/21
f 30/44/21 34/43/23 20/45/12 19/46/11
f 7/7/5 5/5/2 35/47/24 33/48/22
f 5/5/2 2/2/2 36/49/24 35/47/24
f 2/2/2 1/1/1 22/50/16 36/49/24
f 33/48/22 35/47/24 37/51/25 34/52/23
f 35/47/24 36/49/24 38/53/26 37/51/25
f 36/49/24 22/50/16 24/54/16 38/53/26
f 34/52/23 37/51/25 17/17/13 20/20/12
f 39/55/5 40/56/1 13/13/7 16/16/12
f 38/53/26 24/54/16 9/9/7 12/12/10
f 12/57/10 11/58/9 14/14/8 13/13/7
f 11/58/9 28/59/19 31/37/4 14/14/8
f 28/59/19 29/60/20 32/38/6 31/37/4
f 29/60/20 18/61/14 15/15/11 32/38/6
f 18/61/14 17/62/13 16/16/12 15/15/11
f 17/62/13 37/63/25 39/55/5 16/16/12
f 37/63/25 38/64/26 40/56/1 39/55/5
f 38/64/26 12/57/10 13/13/7 40/56/1

# 38 faces
