# Wavefront Obj file
# 
# verts: 108 uv-s: 156
mtllib unwrapped_athena_small_package.mtl

g Box001
#pivot 0.000000 0.000000 0.000000

v -25.000000 -18.751202 25.000000
v -25.000000 -18.751202 8.333300
v -8.333300 -18.751202 8.333300
v -8.333300 -18.751202 25.000000
v 8.333300 -18.751202 8.333300
v 8.333300 -18.751202 25.000000
v 25.000000 -18.751202 8.333300
v 25.000000 -18.751202 25.000000
v -25.000000 -18.751202 -8.333300
v -8.333300 -18.751202 -8.333300
v 8.333300 -18.751202 -8.333300
v 25.000000 -18.751202 -8.333300
v -25.000000 -18.751202 -25.000000
v -8.333300 -18.751202 -25.000000
v 8.333300 -18.751202 -25.000000
v 25.000000 -18.751202 -25.000000
v -27.894699 21.628799 27.894699
v -8.333300 21.628799 27.894699
v -8.333300 21.628799 8.333300
v -27.894699 21.628799 8.333300
v -8.333300 24.041298 30.307199
v 8.333300 24.041298 30.307199
v 8.333300 24.041298 8.333300
v -8.333300 24.041298 8.333300
v 8.333300 21.628799 27.894699
v 27.894699 21.628799 27.894699
v 27.894699 21.628799 8.333300
v 8.333300 21.628799 8.333300
v -30.307199 24.041298 8.333300
v -8.333300 24.041298 -8.333300
v -30.307199 24.041298 -8.333300
v -8.333300 26.694500 8.333300
v 8.333300 26.694500 8.333300
v 8.333300 26.694500 -8.333300
v -8.333300 26.694500 -8.333300
v 30.307199 24.041298 8.333300
v 30.307199 24.041298 -8.333300
v 8.333300 24.041298 -8.333300
v -27.894699 21.628799 -8.333300
v -8.333300 21.628799 -8.333300
v -8.333300 21.628799 -27.894699
v -27.894699 21.628799 -27.894699
v 8.333300 24.041298 -30.307199
v -8.333300 24.041298 -30.307199
v 8.333300 21.628799 -8.333300
v 27.894699 21.628799 -8.333300
v 27.894699 21.628799 -27.894699
v 8.333300 21.628799 -27.894699
v -8.333300 -7.266400 25.000000
v -25.000000 -7.266400 25.000000
v 8.333300 -7.266400 25.000000
v 25.000000 -7.266400 25.000000
v -8.333300 4.238400 25.000000
v -25.000000 4.238400 25.000000
v 8.333300 4.238400 25.000000
v 25.000000 4.238400 25.000000
v -27.894699 4.238400 27.894699
v -8.333300 4.238400 27.894699
v -8.333300 4.238400 30.307199
v 8.333300 4.238400 30.307199
v 8.333300 4.238400 27.894699
v 27.894699 4.238400 27.894699
v 25.000000 -7.266400 8.333300
v 25.000000 -7.266400 -8.333300
v 25.000000 -7.266400 -25.000000
v 25.000000 4.238400 8.333300
v 25.000000 4.238400 -8.333300
v 25.000000 4.238400 -25.000000
v 27.894699 4.238400 8.333300
v 30.307199 4.238400 8.333300
v 30.307199 4.238400 -8.333300
v 27.894699 4.238400 -8.333300
v 27.894699 4.238400 -27.894699
v 8.333300 -7.266400 -25.000000
v -8.333300 -7.266400 -25.000000
v -25.000000 -7.266400 -25.000000
v 8.333300 4.238400 -25.000000
v -8.333300 4.238400 -25.000000
v -25.000000 4.238400 -25.000000
v 8.333300 4.238400 -27.894699
v 8.333300 4.238400 -30.307199
v -8.333300 4.238400 -30.307199
v -8.333300 4.238400 -27.894699
v -27.894699 4.238400 -27.894699
v -25.000000 -7.266400 -8.333300
v -25.000000 -7.266400 8.333300
v -25.000000 4.238400 -8.333300
v -25.000000 4.238400 8.333300
v -27.894699 4.238400 -8.333300
v -30.307199 4.238400 -8.333300
v -30.307199 4.238400 8.333300
v -27.894699 4.238400 8.333300
v -8.333300 -0.103700 27.894699
v 8.333300 -0.103700 27.894699
v 8.333300 -0.103700 30.307199
v -8.333300 -0.103700 30.307199
v 27.894699 -0.103700 8.333300
v 27.894699 -0.103700 -8.333300
v 30.307199 -0.103700 -8.333300
v 30.307199 -0.103700 8.333300
v 8.333300 -0.103700 -27.894699
v -8.333300 -0.103700 -27.894699
v -8.333300 -0.103700 -30.307199
v 8.333300 -0.103700 -30.307199
v -27.894699 -0.103700 -8.333300
v -27.894699 -0.103700 8.333300
v -30.307199 -0.103700 8.333300
v -30.307199 -0.103700 -8.333300
# 108 positions

vt 1.000000 0.000000
vt 1.000000 0.333300
vt 0.666700 0.333300
vt 0.666700 0.000000
vt 0.333300 0.333300
vt 0.333300 0.000000
vt -0.000000 0.333300
vt -0.000000 0.000000
vt 1.000000 0.666700
vt 0.666700 0.666700
vt 0.333300 0.666700
vt -0.000000 0.666700
vt 1.000000 1.000000
vt 0.666700 1.000000
vt 0.333300 1.000000
vt -0.000000 1.000000
vt 0.000000 0.000000
vt 0.333300 0.000000
vt 0.333300 0.333300
vt 0.000000 0.333300
vt 0.333300 0.000000
vt 0.666700 0.000000
vt 0.666700 0.333300
vt 0.333300 0.333300
vt 0.666700 0.000000
vt 1.000000 0.000000
vt 1.000000 0.333300
vt 0.666700 0.333300
vt 0.000000 0.333300
vt 0.333300 0.666700
vt 0.000000 0.666700
vt 0.333300 0.333300
vt 0.666700 0.333300
vt 0.666700 0.666700
vt 0.333300 0.666700
vt 1.000000 0.333300
vt 1.000000 0.666700
vt 0.666700 0.666700
vt 0.000000 0.666700
vt 0.333300 0.666700
vt 0.333300 1.000000
vt 0.000000 1.000000
vt 0.666700 1.000000
vt 0.333300 1.000000
vt 0.666700 0.666700
vt 1.000000 0.666700
vt 1.000000 1.000000
vt 0.666700 1.000000
vt 0.000000 0.000000
vt 0.333300 0.000000
vt 0.333300 0.333300
vt 0.000000 0.333300
vt 0.666700 0.000000
vt 0.666700 0.333300
vt 1.000000 0.000000
vt 1.000000 0.333300
vt 0.333300 0.666700
vt 0.000000 0.666700
vt 0.666700 0.666700
vt 1.000000 0.666700
vt 0.000000 0.666700
vt 0.333300 0.666700
vt 0.333300 1.000000
vt 0.000000 1.000000
vt 0.333300 0.666700
vt 0.666700 0.666700
vt 0.666700 1.000000
vt 0.333300 1.000000
vt 0.666700 0.666700
vt 1.000000 0.666700
vt 1.000000 1.000000
vt 0.666700 1.000000
vt 0.333300 0.000000
vt 0.333300 0.333300
vt 0.000000 0.333300
vt 0.666700 0.000000
vt 0.666700 0.333300
vt 1.000000 0.000000
vt 1.000000 0.333300
vt 0.333300 0.666700
vt 0.000000 0.666700
vt 0.666700 0.666700
vt 1.000000 0.666700
vt 0.000000 0.666700
vt 0.333300 0.666700
vt 0.333300 1.000000
vt 0.000000 1.000000
vt 0.333300 0.666700
vt 0.666700 0.666700
vt 0.666700 1.000000
vt 0.333300 1.000000
vt 0.666700 0.666700
vt 1.000000 0.666700
vt 0.666700 1.000000
vt 0.000000 0.000000
vt 0.333300 0.000000
vt 0.333300 0.333300
vt 0.000000 0.333300
vt 0.666700 0.000000
vt 0.666700 0.333300
vt 1.000000 0.000000
vt 1.000000 0.333300
vt 0.333300 0.666700
vt 0.000000 0.666700
vt 0.666700 0.666700
vt 1.000000 0.666700
vt 0.000000 0.666700
vt 0.333300 0.666700
vt 0.333300 1.000000
vt 0.000000 1.000000
vt 0.333300 0.666700
vt 0.666700 0.666700
vt 0.666700 1.000000
vt 0.333300 1.000000
vt 0.666700 0.666700
vt 1.000000 0.666700
vt 1.000000 1.000000
vt 0.666700 1.000000
vt 0.000000 0.000000
vt 0.333300 0.000000
vt 0.333300 0.333300
vt 0.000000 0.333300
vt 0.666700 0.000000
vt 0.666700 0.333300
vt 1.000000 0.333300
vt 0.333300 0.666700
vt 0.000000 0.666700
vt 0.666700 0.666700
vt 1.000000 0.666700
vt 0.000000 0.666700
vt 0.333300 0.666700
vt 0.333300 1.000000
vt 0.333300 0.666700
vt 0.666700 0.666700
vt 0.666700 1.000000
vt 0.333300 1.000000
vt 0.666700 0.666700
vt 1.000000 0.666700
vt 1.000000 1.000000
vt 0.666700 1.000000
vt 0.333300 0.666700
vt 0.666700 0.666700
vt 0.666700 0.666700
vt 0.333300 0.666700
vt 0.333300 0.666700
vt 0.666700 0.666700
vt 0.666700 0.666700
vt 0.333300 0.666700
vt 0.333300 0.666700
vt 0.666700 0.666700
vt 0.666700 0.666700
vt 0.333300 0.666700
vt 0.333300 0.666700
vt 0.666700 0.666700
vt 0.666700 0.666700
vt 0.333300 0.666700
# 156 texture coordinates

vn -0.545455 -0.636364 0.545455
vn -0.707107 -0.707107 0.000000
vn 0.000000 -1.000000 0.000000
vn 0.000000 -0.707107 0.707107
vn 0.707107 -0.707107 0.000000
vn 0.545455 -0.636364 0.545455
vn -0.545455 -0.636364 -0.545455
vn 0.000000 -0.707107 -0.707107
vn 0.545455 -0.636364 -0.545455
vn -0.601317 0.526152 0.601317
vn -0.816497 0.408248 0.408248
vn -0.408248 0.408248 0.816497
vn 0.601317 0.526152 0.601317
vn 0.816497 0.408248 0.408248
vn 0.408248 0.408248 0.816497
vn -0.601317 0.526152 -0.601317
vn 0.601317 0.526152 -0.601317
vn -0.408248 0.408248 -0.816497
vn -0.816497 0.408248 -0.408248
vn 0.408248 0.408248 -0.816497
vn 0.816497 0.408248 -0.408248
vn 0.000000 0.000000 1.000000
vn -0.707107 0.000000 0.707107
vn 0.707107 0.000000 0.707107
vn -0.408248 -0.816497 0.408248
vn 0.408248 -0.816497 0.408248
vn 0.707107 0.000000 0.707107
vn 1.000000 0.000000 0.000000
vn 0.707107 0.000000 -0.707107
vn 0.408248 -0.816497 -0.408248
vn 0.707107 0.000000 -0.707107
vn 0.000000 0.000000 -1.000000
vn -0.707107 0.000000 -0.707107
vn -0.408248 -0.816497 -0.408248
vn -0.707107 0.000000 -0.707107
vn -1.000000 0.000000 0.000000
vn -0.707107 0.000000 0.707107
# 37 normals

usemtl wire_086086086
f 1/1/1 2/2/2 3/3/3 4/4/4
f 4/4/4 3/3/3 5/5/3 6/6/4
f 6/6/4 5/5/3 7/7/5 8/8/6
f 2/2/2 9/9/2 10/10/3 3/3/3
f 3/3/3 10/10/3 11/11/3 5/5/3
f 5/5/3 11/11/3 12/12/5 7/7/5
f 9/9/2 13/13/7 14/14/8 10/10/3
f 10/10/3 14/14/8 15/15/8 11/11/3
f 11/11/3 15/15/8 16/16/9 12/12/5
f 17/17/10 18/18/11 19/19/10 20/20/12
f 21/21/10 22/22/13 23/23/13 24/24/10
f 25/25/14 26/26/13 27/27/15 28/28/13
f 29/29/10 24/24/10 30/30/16 31/31/16
f 32/32/10 33/33/13 34/34/17 35/35/16
f 23/23/13 36/36/13 37/37/17 38/38/17
f 39/39/18 40/40/16 41/41/19 42/42/16
f 30/30/16 38/38/17 43/43/17 44/44/16
f 45/45/17 46/46/20 47/47/17 48/48/21
f 1/49/1 4/50/4 49/51/22 50/52/23
f 4/50/4 6/53/4 51/54/22 49/51/22
f 6/53/4 8/55/6 52/56/24 51/54/22
f 50/52/23 49/51/22 53/57/4 54/58/25
f 49/51/22 51/54/22 55/59/4 53/57/4
f 51/54/22 52/56/24 56/60/26 55/59/4
f 57/61/1 58/62/2 18/63/11 17/64/10
f 59/65/23 60/66/27 22/67/13 21/68/10
f 61/69/5 62/70/6 26/71/13 25/72/14
f 8/8/6 7/73/5 63/74/28 52/75/24
f 7/73/5 12/76/5 64/77/28 63/74/28
f 12/76/5 16/78/9 65/79/29 64/77/28
f 52/75/24 63/74/28 66/80/5 56/81/26
f 63/74/28 64/77/28 67/82/5 66/80/5
f 64/77/28 65/79/29 68/83/30 67/82/5
f 62/84/6 69/85/4 27/86/15 26/87/13
f 70/88/27 71/89/31 37/90/17 36/91/13
f 72/92/8 73/93/9 47/47/17 46/94/20
f 16/95/9 15/96/8 74/97/32 65/98/29
f 15/96/8 14/99/8 75/100/32 74/97/32
f 14/99/8 13/101/7 76/102/33 75/100/32
f 65/98/29 74/97/32 77/103/8 68/104/30
f 74/97/32 75/100/32 78/105/8 77/103/8
f 75/100/32 76/102/33 79/106/34 78/105/8
f 73/107/9 80/108/5 48/109/21 47/110/17
f 81/111/31 82/112/35 44/113/16 43/114/17
f 83/115/2 84/116/7 42/117/16 41/118/19
f 13/119/7 9/120/2 85/121/36 76/122/33
f 9/120/2 2/123/2 86/124/36 85/121/36
f 2/123/2 1/1/1 50/125/23 86/124/36
f 76/122/33 85/121/36 87/126/2 79/127/34
f 85/121/36 86/124/36 88/128/2 87/126/2
f 86/124/36 50/125/23 54/129/25 88/128/2
f 84/130/7 89/131/8 39/132/18 42/42/16
f 90/133/35 91/134/37 29/135/10 31/136/16
f 92/137/4 57/138/1 17/139/10 20/140/12
f 54/58/25 53/57/4 58/62/2 57/61/1
f 53/57/4 55/59/4 61/69/5 58/62/2
f 55/59/4 56/60/26 62/70/6 61/69/5
f 56/81/26 66/80/5 69/85/4 62/84/6
f 66/80/5 67/82/5 72/92/8 69/85/4
f 67/82/5 68/83/30 73/93/9 72/92/8
f 68/104/30 77/103/8 80/108/5 73/107/9
f 77/103/8 78/105/8 83/115/2 80/108/5
f 78/105/8 79/106/34 84/116/7 83/115/2
f 79/127/34 87/126/2 89/131/8 84/130/7
f 87/126/2 88/128/2 92/137/4 89/131/8
f 88/128/2 54/129/25 57/138/1 92/137/4
f 19/19/10 18/18/11 21/21/10 24/24/10
f 18/63/11 58/62/2 59/65/23 21/68/10
f 93/141/7 94/142/9 95/143/6 96/144/1
f 61/69/5 25/72/14 22/67/13 60/66/27
f 25/25/14 28/28/13 23/23/13 22/22/13
f 28/28/13 27/27/15 36/36/13 23/23/13
f 27/86/15 69/85/4 70/88/27 36/91/13
f 97/145/1 98/146/7 99/147/9 100/148/6
f 72/92/8 46/94/20 37/90/17 71/89/31
f 46/46/20 45/45/17 38/38/17 37/37/17
f 45/45/17 48/48/21 43/43/17 38/38/17
f 48/109/21 80/108/5 81/111/31 43/114/17
f 101/149/6 102/150/1 103/151/7 104/152/9
f 83/115/2 41/118/19 44/113/16 82/112/35
f 41/41/19 40/40/16 30/30/16 44/44/16
f 40/40/16 39/39/18 31/31/16 30/30/16
f 39/132/18 89/131/8 90/133/35 31/136/16
f 105/153/9 106/154/6 107/155/1 108/156/7
f 92/137/4 20/140/12 29/135/10 91/134/37
f 20/20/12 19/19/10 24/24/10 29/29/10
f 58/62/2 61/69/5 94/142/9 93/141/7
f 61/69/5 60/66/27 95/143/6 94/142/9
f 60/66/27 59/65/23 96/144/1 95/143/6
f 59/65/23 58/62/2 93/141/7 96/144/1
f 69/85/4 72/92/8 98/146/7 97/145/1
f 72/92/8 71/89/31 99/147/9 98/146/7
f 71/89/31 70/88/27 100/148/6 99/147/9
f 70/88/27 69/85/4 97/145/1 100/148/6
f 80/108/5 83/115/2 102/150/1 101/149/6
f 83/115/2 82/112/35 103/151/7 102/150/1
f 82/112/35 81/111/31 104/152/9 103/151/7
f 81/111/31 80/108/5 101/149/6 104/152/9
f 89/131/8 92/137/4 106/154/6 105/153/9
f 92/137/4 91/134/37 107/155/1 106/154/6
f 91/134/37 90/133/35 108/156/7 107/155/1
f 90/133/35 89/131/8 105/153/9 108/156/7
f 24/24/10 23/23/13 33/33/13 32/32/10
f 23/23/13 38/38/17 34/34/17 33/33/13
f 38/38/17 30/30/16 35/35/16 34/34/17
f 30/30/16 24/24/10 32/32/10 35/35/16

# 106 faces
