# 3ds Max Wavefront OBJ Exporter v0.99 - (c)2007 guruware
# File Created: 22.04.2024 01:08:00

mtllib fire.mtl

#
# object Box001
#

v  -45.5957 23.0625 1.3612
v  10.0820 0.0000 1.3612
v  10.0820 23.0625 57.0389
v  -35.3786 33.2795 46.8218
v  10.0820 134.4179 57.0389
v  10.0820 157.4803 1.3612
v  -45.5957 134.4179 1.3612
v  -35.3786 124.2008 46.8218
v  10.0820 78.7402 80.1013
v  -45.5957 78.7402 57.0389
v  65.7597 23.0625 1.3612
v  88.8222 78.7402 1.3612
v  65.7597 78.7402 57.0389
v  55.5427 33.2795 46.8218
v  10.0820 23.0625 -54.3165
v  10.0820 78.7402 -77.3790
v  65.7597 78.7402 -54.3165
v  55.5427 33.2795 -44.0995
v  -68.6581 78.7402 1.3612
v  -45.5957 78.7402 -54.3165
v  -35.3786 33.2795 -44.0995
v  55.5427 124.2008 46.8218
v  65.7597 134.4179 1.3612
v  10.0820 134.4179 -54.3165
v  -35.3786 124.2008 -44.0995
v  55.5427 124.2008 -44.0995
# 26 vertices

vn -0.7071 -0.7071 -0.0000
vn 0.0000 -1.0000 -0.0000
vn 0.0000 -0.7071 0.7071
vn -0.5774 -0.5774 0.5774
vn 0.0000 0.7071 0.7071
vn 0.0000 1.0000 -0.0000
vn -0.7071 0.7071 -0.0000
vn -0.5774 0.5774 0.5774
vn 0.0000 0.0000 1.0000
vn -0.7071 0.0000 0.7071
vn 0.7071 -0.7071 -0.0000
vn 1.0000 0.0000 -0.0000
vn 0.7071 0.0000 0.7071
vn 0.5774 -0.5774 0.5774
vn -0.0000 -0.7071 -0.7071
vn 0.0000 0.0000 -1.0000
vn 0.7071 0.0000 -0.7071
vn 0.5774 -0.5774 -0.5774
vn -1.0000 0.0000 -0.0000
vn -0.7071 0.0000 -0.7071
vn -0.5774 -0.5774 -0.5774
vn 0.5774 0.5774 0.5774
vn 0.7071 0.7071 -0.0000
vn 0.0000 0.7071 -0.7071
vn -0.5774 0.5774 -0.5774
vn 0.5774 0.5774 -0.5774
# 26 vertex normals

vt 1.0000 0.5000 0.0000
vt 0.5000 0.5000 0.0000
vt 0.5000 0.0000 0.0000
vt 1.0000 0.0000 0.0000
vt 0.0000 0.5000 0.0000
vt 0.0000 0.0000 0.0000
vt 0.0000 1.0000 0.0000
vt 0.5000 1.0000 0.0000
vt 1.0000 1.0000 0.0000
# 9 texture coords

o Box001
g Box001
usemtl wire_115115115
s 2
f 1/1/1 2/2/2 3/3/3 4/4/4 
s 4
f 5/3/5 6/2/6 7/5/7 8/6/8 
s 8
f 3/3/3 9/2/9 10/5/10 4/6/4 
s 16
f 11/3/11 12/2/12 13/5/13 14/6/14 
s 32
f 15/3/15 16/2/16 17/5/17 18/6/18 
s 64
f 1/3/1 19/2/19 20/5/20 21/6/21 
s 2
f 18/7/18 11/5/11 2/2/2 15/8/15 
s 4
f 22/4/22 23/1/23 6/2/6 5/3/5 
s 8
f 14/4/14 13/1/13 9/2/9 3/3/3 
s 32
f 21/4/21 20/1/20 16/2/16 15/3/15 
s 2
f 21/9/21 15/8/15 2/2/2 1/1/1 
s 4
f 24/8/24 25/7/25 7/5/7 6/2/6 
s 16
f 18/4/18 17/1/17 12/2/12 11/3/11 
s 64
f 4/4/4 10/1/10 19/2/19 1/3/1 
s 2
f 14/6/14 3/3/3 2/2/2 11/5/11 
s 4
f 26/9/26 24/8/24 6/2/6 23/1/23 
s 8
f 5/8/5 8/7/8 10/5/10 9/2/9 
s 16
f 23/8/23 22/7/22 13/5/13 12/2/12 
s 32
f 24/8/24 26/7/26 17/5/17 16/2/16 
s 64
f 7/8/7 25/7/25 20/5/20 19/2/19 
s 8
f 22/9/22 5/8/5 9/2/9 13/1/13 
s 32
f 25/9/25 24/8/24 16/2/16 20/1/20 
s 16
f 26/9/26 23/8/23 12/2/12 17/1/17 
s 64
f 8/9/8 7/8/7 19/2/19 10/1/10 
# 24 polygons

